<mxfile host="Electron" modified="2024-02-12T16:39:31.595Z" agent="Mozilla/5.0 (X11; Linux x86_64) AppleWebKit/537.36 (KHTML, like Gecko) draw.io/23.0.2 Chrome/120.0.6099.109 Electron/28.1.0 Safari/537.36" etag="5vu0NO139TxqumofEVq7" version="23.0.2" type="device" pages="7">
  <diagram id="ixmN6UUAXnHSkAaoisVH" name="ingress">
    <mxGraphModel dx="2284" dy="858" grid="1" gridSize="10" guides="1" tooltips="1" connect="1" arrows="1" fold="1" page="1" pageScale="1" pageWidth="850" pageHeight="1100" math="0" shadow="0">
      <root>
        <mxCell id="0" />
        <mxCell id="1" parent="0" />
        <mxCell id="TA1rwOlUrw6r4Z3uxq8z-1" value="" style="rounded=0;whiteSpace=wrap;html=1;fillColor=none;strokeColor=none;" parent="1" vertex="1">
          <mxGeometry x="-610" y="320" width="1070" height="310" as="geometry" />
        </mxCell>
        <mxCell id="-XNP06E32z3q4YlkFfG9-32" value="External&lt;br&gt;Load Balancer" style="sketch=0;points=[[0.015,0.015,0],[0.985,0.015,0],[0.985,0.985,0],[0.015,0.985,0],[0.25,0,0],[0.5,0,0],[0.75,0,0],[1,0.25,0],[1,0.5,0],[1,0.75,0],[0.75,1,0],[0.5,1,0],[0.25,1,0],[0,0.75,0],[0,0.5,0],[0,0.25,0]];verticalLabelPosition=bottom;html=1;verticalAlign=top;aspect=fixed;align=center;pointerEvents=1;shape=mxgraph.cisco19.rect;prIcon=load_balancer;fillColor=#fff2cc;strokeColor=#d6b656;gradientColor=#ffd966;" parent="1" vertex="1">
          <mxGeometry x="-250" y="370" width="64" height="50" as="geometry" />
        </mxCell>
        <mxCell id="-XNP06E32z3q4YlkFfG9-33" value="web&lt;br&gt;client" style="rounded=1;whiteSpace=wrap;html=1;fillColor=#dae8fc;gradientColor=#7ea6e0;strokeColor=#6c8ebf;" parent="1" vertex="1">
          <mxGeometry x="-490" y="370" width="70" height="38" as="geometry" />
        </mxCell>
        <mxCell id="-XNP06E32z3q4YlkFfG9-34" value="web&lt;br&gt;client" style="rounded=1;whiteSpace=wrap;html=1;fillColor=#dae8fc;gradientColor=#7ea6e0;strokeColor=#6c8ebf;" parent="1" vertex="1">
          <mxGeometry x="-480" y="380" width="70" height="38" as="geometry" />
        </mxCell>
        <mxCell id="-XNP06E32z3q4YlkFfG9-35" value="" style="ellipse;shape=cloud;whiteSpace=wrap;html=1;fillColor=#f5f5f5;strokeColor=#666666;gradientColor=#b3b3b3;" parent="1" vertex="1">
          <mxGeometry x="-390" y="355" width="120" height="80" as="geometry" />
        </mxCell>
        <mxCell id="-XNP06E32z3q4YlkFfG9-36" value="" style="rounded=1;whiteSpace=wrap;html=1;fillColor=#ffe6cc;strokeColor=#d79b00;arcSize=4;" parent="1" vertex="1">
          <mxGeometry x="-120" y="335" width="436" height="280" as="geometry" />
        </mxCell>
        <mxCell id="-XNP06E32z3q4YlkFfG9-37" value="Kubernetes cluster" style="rounded=1;whiteSpace=wrap;html=1;fillColor=#ffcd28;gradientColor=#ffa500;strokeColor=#d79b00;" parent="1" vertex="1">
          <mxGeometry x="-120" y="335" width="436" height="20" as="geometry" />
        </mxCell>
        <mxCell id="-XNP06E32z3q4YlkFfG9-38" value="" style="aspect=fixed;sketch=0;html=1;dashed=0;whitespace=wrap;fillColor=#ffcd28;strokeColor=#d79b00;points=[[0.005,0.63,0],[0.1,0.2,0],[0.9,0.2,0],[0.5,0,0],[0.995,0.63,0],[0.72,0.99,0],[0.5,1,0],[0.28,0.99,0]];shape=mxgraph.kubernetes.icon2;prIcon=pod;gradientColor=#ffa500;verticalAlign=bottom;spacingBottom=-15;" parent="1" vertex="1">
          <mxGeometry x="-34" y="360" width="50" height="48" as="geometry" />
        </mxCell>
        <mxCell id="TA1rwOlUrw6r4Z3uxq8z-2" value="Ingress&lt;br&gt;Controller" style="aspect=fixed;sketch=0;html=1;dashed=0;whitespace=wrap;fillColor=#ffcd28;strokeColor=#d79b00;points=[[0.005,0.63,0],[0.1,0.2,0],[0.9,0.2,0],[0.5,0,0],[0.995,0.63,0],[0.72,0.99,0],[0.5,1,0],[0.28,0.99,0]];shape=mxgraph.kubernetes.icon2;prIcon=pod;gradientColor=#ffa500;verticalAlign=bottom;spacingBottom=-15;" parent="1" vertex="1">
          <mxGeometry x="-24" y="366" width="50" height="48" as="geometry" />
        </mxCell>
        <mxCell id="-XNP06E32z3q4YlkFfG9-13" value="" style="aspect=fixed;sketch=0;html=1;dashed=0;whitespace=wrap;fillColor=#dae8fc;strokeColor=#6c8ebf;points=[[0.005,0.63,0],[0.1,0.2,0],[0.9,0.2,0],[0.5,0,0],[0.995,0.63,0],[0.72,0.99,0],[0.5,1,0],[0.28,0.99,0]];shape=mxgraph.kubernetes.icon2;prIcon=pod;gradientColor=#7ea6e0;verticalAlign=bottom;spacingBottom=-15;" parent="1" vertex="1">
          <mxGeometry x="86" y="535" width="50" height="48" as="geometry" />
        </mxCell>
        <mxCell id="-XNP06E32z3q4YlkFfG9-30" value="" style="aspect=fixed;sketch=0;html=1;dashed=0;whitespace=wrap;fillColor=#dae8fc;strokeColor=#6c8ebf;points=[[0.005,0.63,0],[0.1,0.2,0],[0.9,0.2,0],[0.5,0,0],[0.995,0.63,0],[0.72,0.99,0],[0.5,1,0],[0.28,0.99,0]];shape=mxgraph.kubernetes.icon2;kubernetesLabel=1;prIcon=ing;verticalAlign=bottom;gradientColor=#7ea6e0;spacingBottom=-15;" parent="1" vertex="1">
          <mxGeometry x="46" y="424" width="50" height="48" as="geometry" />
        </mxCell>
        <mxCell id="-XNP06E32z3q4YlkFfG9-27" value="" style="aspect=fixed;sketch=0;html=1;dashed=0;whitespace=wrap;fillColor=#dae8fc;strokeColor=#6c8ebf;points=[[0.005,0.63,0],[0.1,0.2,0],[0.9,0.2,0],[0.5,0,0],[0.995,0.63,0],[0.72,0.99,0],[0.5,1,0],[0.28,0.99,0]];shape=mxgraph.kubernetes.icon2;kubernetesLabel=1;prIcon=svc;verticalAlign=bottom;gradientColor=#7ea6e0;spacingBottom=-15;" parent="1" vertex="1">
          <mxGeometry x="86" y="472" width="50" height="48" as="geometry" />
        </mxCell>
        <mxCell id="TA1rwOlUrw6r4Z3uxq8z-3" value="" style="aspect=fixed;sketch=0;html=1;dashed=0;whitespace=wrap;fillColor=#dae8fc;strokeColor=#6c8ebf;points=[[0.005,0.63,0],[0.1,0.2,0],[0.9,0.2,0],[0.5,0,0],[0.995,0.63,0],[0.72,0.99,0],[0.5,1,0],[0.28,0.99,0]];shape=mxgraph.kubernetes.icon2;kubernetesLabel=1;prIcon=ing;verticalAlign=bottom;gradientColor=#7ea6e0;spacingBottom=-15;" parent="1" vertex="1">
          <mxGeometry x="256" y="424" width="50" height="48" as="geometry" />
        </mxCell>
        <mxCell id="TA1rwOlUrw6r4Z3uxq8z-4" value="" style="aspect=fixed;sketch=0;html=1;dashed=0;whitespace=wrap;fillColor=#dae8fc;strokeColor=#6c8ebf;points=[[0.005,0.63,0],[0.1,0.2,0],[0.9,0.2,0],[0.5,0,0],[0.995,0.63,0],[0.72,0.99,0],[0.5,1,0],[0.28,0.99,0]];shape=mxgraph.kubernetes.icon2;kubernetesLabel=1;prIcon=svc;verticalAlign=bottom;gradientColor=#7ea6e0;spacingBottom=-15;" parent="1" vertex="1">
          <mxGeometry x="176" y="472" width="50" height="48" as="geometry" />
        </mxCell>
        <mxCell id="TA1rwOlUrw6r4Z3uxq8z-6" value="application&lt;br&gt;pods" style="aspect=fixed;sketch=0;html=1;dashed=0;whitespace=wrap;fillColor=#dae8fc;strokeColor=#6c8ebf;points=[[0.005,0.63,0],[0.1,0.2,0],[0.9,0.2,0],[0.5,0,0],[0.995,0.63,0],[0.72,0.99,0],[0.5,1,0],[0.28,0.99,0]];shape=mxgraph.kubernetes.icon2;prIcon=pod;gradientColor=#7ea6e0;verticalAlign=bottom;spacingBottom=-15;" parent="1" vertex="1">
          <mxGeometry x="96" y="545" width="50" height="48" as="geometry" />
        </mxCell>
        <mxCell id="TA1rwOlUrw6r4Z3uxq8z-7" value="" style="aspect=fixed;sketch=0;html=1;dashed=0;whitespace=wrap;fillColor=#dae8fc;strokeColor=#6c8ebf;points=[[0.005,0.63,0],[0.1,0.2,0],[0.9,0.2,0],[0.5,0,0],[0.995,0.63,0],[0.72,0.99,0],[0.5,1,0],[0.28,0.99,0]];shape=mxgraph.kubernetes.icon2;prIcon=pod;gradientColor=#7ea6e0;verticalAlign=bottom;spacingBottom=-15;" parent="1" vertex="1">
          <mxGeometry x="176" y="535" width="50" height="48" as="geometry" />
        </mxCell>
        <mxCell id="TA1rwOlUrw6r4Z3uxq8z-8" value="application&lt;br&gt;pods" style="aspect=fixed;sketch=0;html=1;dashed=0;whitespace=wrap;fillColor=#dae8fc;strokeColor=#6c8ebf;points=[[0.005,0.63,0],[0.1,0.2,0],[0.9,0.2,0],[0.5,0,0],[0.995,0.63,0],[0.72,0.99,0],[0.5,1,0],[0.28,0.99,0]];shape=mxgraph.kubernetes.icon2;prIcon=pod;gradientColor=#7ea6e0;verticalAlign=bottom;spacingBottom=-15;" parent="1" vertex="1">
          <mxGeometry x="186" y="545" width="50" height="48" as="geometry" />
        </mxCell>
        <mxCell id="TA1rwOlUrw6r4Z3uxq8z-9" value="" style="endArrow=classic;html=1;rounded=0;exitX=1;exitY=0.5;exitDx=0;exitDy=0;entryX=0.194;entryY=0.548;entryDx=0;entryDy=0;entryPerimeter=0;" parent="1" source="-XNP06E32z3q4YlkFfG9-34" target="-XNP06E32z3q4YlkFfG9-35" edge="1">
          <mxGeometry width="50" height="50" relative="1" as="geometry">
            <mxPoint x="-190" y="485" as="sourcePoint" />
            <mxPoint x="-140" y="435" as="targetPoint" />
          </mxGeometry>
        </mxCell>
        <mxCell id="TA1rwOlUrw6r4Z3uxq8z-10" value="" style="endArrow=classic;html=1;rounded=0;exitX=0.875;exitY=0.5;exitDx=0;exitDy=0;exitPerimeter=0;entryX=0;entryY=0.5;entryDx=0;entryDy=0;entryPerimeter=0;" parent="1" source="-XNP06E32z3q4YlkFfG9-35" target="-XNP06E32z3q4YlkFfG9-32" edge="1">
          <mxGeometry width="50" height="50" relative="1" as="geometry">
            <mxPoint x="-190" y="485" as="sourcePoint" />
            <mxPoint x="-140" y="435" as="targetPoint" />
          </mxGeometry>
        </mxCell>
        <mxCell id="TA1rwOlUrw6r4Z3uxq8z-11" value="" style="endArrow=classic;html=1;rounded=0;exitX=1;exitY=0.5;exitDx=0;exitDy=0;exitPerimeter=0;entryX=0.005;entryY=0.63;entryDx=0;entryDy=0;entryPerimeter=0;" parent="1" source="-XNP06E32z3q4YlkFfG9-32" target="TA1rwOlUrw6r4Z3uxq8z-23" edge="1">
          <mxGeometry width="50" height="50" relative="1" as="geometry">
            <mxPoint x="-80" y="395" as="sourcePoint" />
            <mxPoint x="-34" y="435" as="targetPoint" />
          </mxGeometry>
        </mxCell>
        <mxCell id="TA1rwOlUrw6r4Z3uxq8z-12" value="" style="endArrow=classic;html=1;rounded=0;entryX=0.5;entryY=0;entryDx=0;entryDy=0;entryPerimeter=0;exitX=0.995;exitY=0.63;exitDx=0;exitDy=0;exitPerimeter=0;edgeStyle=orthogonalEdgeStyle;" parent="1" source="TA1rwOlUrw6r4Z3uxq8z-2" target="-XNP06E32z3q4YlkFfG9-30" edge="1">
          <mxGeometry width="50" height="50" relative="1" as="geometry">
            <mxPoint x="-124" y="485" as="sourcePoint" />
            <mxPoint x="-74" y="435" as="targetPoint" />
          </mxGeometry>
        </mxCell>
        <mxCell id="TA1rwOlUrw6r4Z3uxq8z-13" value="" style="endArrow=classic;html=1;rounded=0;entryX=0.5;entryY=0;entryDx=0;entryDy=0;entryPerimeter=0;exitX=0.995;exitY=0.63;exitDx=0;exitDy=0;exitPerimeter=0;edgeStyle=orthogonalEdgeStyle;" parent="1" source="TA1rwOlUrw6r4Z3uxq8z-2" target="TA1rwOlUrw6r4Z3uxq8z-3" edge="1">
          <mxGeometry width="50" height="50" relative="1" as="geometry">
            <mxPoint x="36" y="421" as="sourcePoint" />
            <mxPoint x="81" y="424" as="targetPoint" />
          </mxGeometry>
        </mxCell>
        <mxCell id="TA1rwOlUrw6r4Z3uxq8z-14" value="" style="endArrow=classic;html=1;rounded=0;entryX=0.5;entryY=0;entryDx=0;entryDy=0;entryPerimeter=0;exitX=0.995;exitY=0.63;exitDx=0;exitDy=0;exitPerimeter=0;edgeStyle=orthogonalEdgeStyle;" parent="1" source="-XNP06E32z3q4YlkFfG9-30" target="-XNP06E32z3q4YlkFfG9-27" edge="1">
          <mxGeometry width="50" height="50" relative="1" as="geometry">
            <mxPoint x="-224" y="585" as="sourcePoint" />
            <mxPoint x="-174" y="535" as="targetPoint" />
          </mxGeometry>
        </mxCell>
        <mxCell id="TA1rwOlUrw6r4Z3uxq8z-15" value="" style="endArrow=classic;html=1;rounded=0;entryX=0.5;entryY=0;entryDx=0;entryDy=0;entryPerimeter=0;exitX=0.995;exitY=0.63;exitDx=0;exitDy=0;exitPerimeter=0;edgeStyle=orthogonalEdgeStyle;" parent="1" source="-XNP06E32z3q4YlkFfG9-30" target="TA1rwOlUrw6r4Z3uxq8z-4" edge="1">
          <mxGeometry width="50" height="50" relative="1" as="geometry">
            <mxPoint x="106" y="464" as="sourcePoint" />
            <mxPoint x="121" y="482" as="targetPoint" />
          </mxGeometry>
        </mxCell>
        <mxCell id="TA1rwOlUrw6r4Z3uxq8z-16" value="" style="endArrow=classic;html=1;rounded=0;exitX=0.5;exitY=1;exitDx=0;exitDy=0;exitPerimeter=0;" parent="1" source="-XNP06E32z3q4YlkFfG9-27" target="-XNP06E32z3q4YlkFfG9-13" edge="1">
          <mxGeometry width="50" height="50" relative="1" as="geometry">
            <mxPoint x="36" y="515" as="sourcePoint" />
            <mxPoint x="86" y="465" as="targetPoint" />
          </mxGeometry>
        </mxCell>
        <mxCell id="TA1rwOlUrw6r4Z3uxq8z-17" value="" style="endArrow=classic;html=1;rounded=0;exitX=0.5;exitY=1;exitDx=0;exitDy=0;exitPerimeter=0;entryX=0.5;entryY=0;entryDx=0;entryDy=0;entryPerimeter=0;" parent="1" source="-XNP06E32z3q4YlkFfG9-27" target="TA1rwOlUrw6r4Z3uxq8z-6" edge="1">
          <mxGeometry width="50" height="50" relative="1" as="geometry">
            <mxPoint x="46" y="525" as="sourcePoint" />
            <mxPoint x="96" y="475" as="targetPoint" />
          </mxGeometry>
        </mxCell>
        <mxCell id="TA1rwOlUrw6r4Z3uxq8z-18" value="" style="endArrow=classic;html=1;rounded=0;exitX=0.5;exitY=1;exitDx=0;exitDy=0;exitPerimeter=0;entryX=0.5;entryY=0;entryDx=0;entryDy=0;entryPerimeter=0;" parent="1" source="TA1rwOlUrw6r4Z3uxq8z-4" target="TA1rwOlUrw6r4Z3uxq8z-7" edge="1">
          <mxGeometry width="50" height="50" relative="1" as="geometry">
            <mxPoint x="56" y="535" as="sourcePoint" />
            <mxPoint x="106" y="485" as="targetPoint" />
          </mxGeometry>
        </mxCell>
        <mxCell id="TA1rwOlUrw6r4Z3uxq8z-19" value="" style="endArrow=classic;html=1;rounded=0;entryX=0.5;entryY=0;entryDx=0;entryDy=0;entryPerimeter=0;exitX=0.5;exitY=1;exitDx=0;exitDy=0;exitPerimeter=0;" parent="1" source="TA1rwOlUrw6r4Z3uxq8z-4" target="TA1rwOlUrw6r4Z3uxq8z-8" edge="1">
          <mxGeometry width="50" height="50" relative="1" as="geometry">
            <mxPoint x="66" y="545" as="sourcePoint" />
            <mxPoint x="116" y="495" as="targetPoint" />
          </mxGeometry>
        </mxCell>
        <mxCell id="TA1rwOlUrw6r4Z3uxq8z-23" value="" style="aspect=fixed;sketch=0;html=1;dashed=0;whitespace=wrap;fillColor=#ffcd28;strokeColor=#d79b00;points=[[0.005,0.63,0],[0.1,0.2,0],[0.9,0.2,0],[0.5,0,0],[0.995,0.63,0],[0.72,0.99,0],[0.5,1,0],[0.28,0.99,0]];shape=mxgraph.kubernetes.icon2;kubernetesLabel=1;prIcon=svc;verticalAlign=bottom;gradientColor=#ffa500;spacingBottom=-15;" parent="1" vertex="1">
          <mxGeometry x="-110" y="366" width="50" height="48" as="geometry" />
        </mxCell>
        <mxCell id="TA1rwOlUrw6r4Z3uxq8z-24" value="" style="endArrow=classic;html=1;rounded=0;entryX=0.005;entryY=0.63;entryDx=0;entryDy=0;entryPerimeter=0;exitX=0.995;exitY=0.63;exitDx=0;exitDy=0;exitPerimeter=0;" parent="1" source="TA1rwOlUrw6r4Z3uxq8z-23" target="TA1rwOlUrw6r4Z3uxq8z-2" edge="1">
          <mxGeometry width="50" height="50" relative="1" as="geometry">
            <mxPoint x="-100" y="600" as="sourcePoint" />
            <mxPoint x="-50" y="550" as="targetPoint" />
          </mxGeometry>
        </mxCell>
        <mxCell id="07c5ZgywOzxWPa9b3fdd-1" value="" style="endArrow=open;html=1;rounded=0;entryX=0.995;entryY=0.63;entryDx=0;entryDy=0;entryPerimeter=0;exitX=0.5;exitY=0;exitDx=0;exitDy=0;exitPerimeter=0;edgeStyle=orthogonalEdgeStyle;dashed=1;strokeColor=#4D4D4D;endFill=0;" parent="1" source="-XNP06E32z3q4YlkFfG9-30" target="-XNP06E32z3q4YlkFfG9-30" edge="1">
          <mxGeometry width="50" height="50" relative="1" as="geometry">
            <mxPoint x="-90" y="480" as="sourcePoint" />
            <mxPoint x="-40" y="430" as="targetPoint" />
            <Array as="points">
              <mxPoint x="70" y="454" />
            </Array>
          </mxGeometry>
        </mxCell>
      </root>
    </mxGraphModel>
  </diagram>
  <diagram name="ingress-routes" id="m1Y9HFnVi2zHcWH-wRIY">
    <mxGraphModel dx="2284" dy="858" grid="1" gridSize="10" guides="1" tooltips="1" connect="1" arrows="1" fold="1" page="1" pageScale="1" pageWidth="850" pageHeight="1100" math="0" shadow="0">
      <root>
        <mxCell id="H88P1YSKS4xMaoFwpy47-0" />
        <mxCell id="H88P1YSKS4xMaoFwpy47-1" parent="H88P1YSKS4xMaoFwpy47-0" />
        <mxCell id="AQw8ANej9L9q9QnPBxng-0" value="" style="rounded=0;whiteSpace=wrap;html=1;fillColor=none;strokeColor=none;" parent="H88P1YSKS4xMaoFwpy47-1" vertex="1">
          <mxGeometry x="-610" y="320" width="1070" height="310" as="geometry" />
        </mxCell>
        <mxCell id="H88P1YSKS4xMaoFwpy47-2" value="External&lt;br&gt;Load Balancer" style="sketch=0;points=[[0.015,0.015,0],[0.985,0.015,0],[0.985,0.985,0],[0.015,0.985,0],[0.25,0,0],[0.5,0,0],[0.75,0,0],[1,0.25,0],[1,0.5,0],[1,0.75,0],[0.75,1,0],[0.5,1,0],[0.25,1,0],[0,0.75,0],[0,0.5,0],[0,0.25,0]];verticalLabelPosition=bottom;html=1;verticalAlign=top;aspect=fixed;align=center;pointerEvents=1;shape=mxgraph.cisco19.rect;prIcon=load_balancer;fillColor=#fff2cc;strokeColor=#d6b656;gradientColor=#ffd966;" parent="H88P1YSKS4xMaoFwpy47-1" vertex="1">
          <mxGeometry x="-250" y="370" width="64" height="50" as="geometry" />
        </mxCell>
        <mxCell id="H88P1YSKS4xMaoFwpy47-3" value="web&lt;br&gt;client" style="rounded=1;whiteSpace=wrap;html=1;fillColor=#dae8fc;gradientColor=#7ea6e0;strokeColor=#6c8ebf;" parent="H88P1YSKS4xMaoFwpy47-1" vertex="1">
          <mxGeometry x="-490" y="370" width="70" height="38" as="geometry" />
        </mxCell>
        <mxCell id="H88P1YSKS4xMaoFwpy47-4" value="web&lt;br&gt;client" style="rounded=1;whiteSpace=wrap;html=1;fillColor=#dae8fc;gradientColor=#7ea6e0;strokeColor=#6c8ebf;" parent="H88P1YSKS4xMaoFwpy47-1" vertex="1">
          <mxGeometry x="-480" y="380" width="70" height="38" as="geometry" />
        </mxCell>
        <mxCell id="H88P1YSKS4xMaoFwpy47-5" value="" style="ellipse;shape=cloud;whiteSpace=wrap;html=1;fillColor=#f5f5f5;strokeColor=#666666;gradientColor=#b3b3b3;" parent="H88P1YSKS4xMaoFwpy47-1" vertex="1">
          <mxGeometry x="-390" y="355" width="120" height="80" as="geometry" />
        </mxCell>
        <mxCell id="H88P1YSKS4xMaoFwpy47-6" value="" style="rounded=1;whiteSpace=wrap;html=1;fillColor=#ffe6cc;strokeColor=#d79b00;arcSize=4;" parent="H88P1YSKS4xMaoFwpy47-1" vertex="1">
          <mxGeometry x="-120" y="335" width="450" height="280" as="geometry" />
        </mxCell>
        <mxCell id="H88P1YSKS4xMaoFwpy47-7" value="Kubernetes cluster" style="rounded=1;whiteSpace=wrap;html=1;fillColor=#ffcd28;gradientColor=#ffa500;strokeColor=#d79b00;" parent="H88P1YSKS4xMaoFwpy47-1" vertex="1">
          <mxGeometry x="-120" y="335" width="450" height="20" as="geometry" />
        </mxCell>
        <mxCell id="H88P1YSKS4xMaoFwpy47-8" value="" style="aspect=fixed;sketch=0;html=1;dashed=0;whitespace=wrap;fillColor=#ffcd28;strokeColor=#d79b00;points=[[0.005,0.63,0],[0.1,0.2,0],[0.9,0.2,0],[0.5,0,0],[0.995,0.63,0],[0.72,0.99,0],[0.5,1,0],[0.28,0.99,0]];shape=mxgraph.kubernetes.icon2;prIcon=pod;gradientColor=#ffa500;verticalAlign=bottom;spacingBottom=-15;" parent="H88P1YSKS4xMaoFwpy47-1" vertex="1">
          <mxGeometry x="-34" y="360" width="50" height="48" as="geometry" />
        </mxCell>
        <mxCell id="H88P1YSKS4xMaoFwpy47-10" value="Ingress&lt;br&gt;Controller" style="aspect=fixed;sketch=0;html=1;dashed=0;whitespace=wrap;fillColor=#ffcd28;strokeColor=#d79b00;points=[[0.005,0.63,0],[0.1,0.2,0],[0.9,0.2,0],[0.5,0,0],[0.995,0.63,0],[0.72,0.99,0],[0.5,1,0],[0.28,0.99,0]];shape=mxgraph.kubernetes.icon2;prIcon=pod;gradientColor=#ffa500;verticalAlign=bottom;spacingBottom=-15;" parent="H88P1YSKS4xMaoFwpy47-1" vertex="1">
          <mxGeometry x="-24" y="366" width="50" height="48" as="geometry" />
        </mxCell>
        <mxCell id="H88P1YSKS4xMaoFwpy47-11" value="" style="aspect=fixed;sketch=0;html=1;dashed=0;whitespace=wrap;fillColor=#dae8fc;strokeColor=#6c8ebf;points=[[0.005,0.63,0],[0.1,0.2,0],[0.9,0.2,0],[0.5,0,0],[0.995,0.63,0],[0.72,0.99,0],[0.5,1,0],[0.28,0.99,0]];shape=mxgraph.kubernetes.icon2;prIcon=pod;gradientColor=#7ea6e0;verticalAlign=bottom;spacingBottom=-15;" parent="H88P1YSKS4xMaoFwpy47-1" vertex="1">
          <mxGeometry x="86" y="535" width="50" height="48" as="geometry" />
        </mxCell>
        <mxCell id="H88P1YSKS4xMaoFwpy47-12" value="" style="aspect=fixed;sketch=0;html=1;dashed=0;whitespace=wrap;fillColor=#dae8fc;strokeColor=#6c8ebf;points=[[0.005,0.63,0],[0.1,0.2,0],[0.9,0.2,0],[0.5,0,0],[0.995,0.63,0],[0.72,0.99,0],[0.5,1,0],[0.28,0.99,0]];shape=mxgraph.kubernetes.icon2;kubernetesLabel=1;prIcon=ing;verticalAlign=bottom;gradientColor=#7ea6e0;spacingBottom=-15;" parent="H88P1YSKS4xMaoFwpy47-1" vertex="1">
          <mxGeometry x="46" y="424" width="50" height="48" as="geometry" />
        </mxCell>
        <mxCell id="H88P1YSKS4xMaoFwpy47-13" value="" style="aspect=fixed;sketch=0;html=1;dashed=0;whitespace=wrap;fillColor=#dae8fc;strokeColor=#6c8ebf;points=[[0.005,0.63,0],[0.1,0.2,0],[0.9,0.2,0],[0.5,0,0],[0.995,0.63,0],[0.72,0.99,0],[0.5,1,0],[0.28,0.99,0]];shape=mxgraph.kubernetes.icon2;kubernetesLabel=1;prIcon=svc;verticalAlign=bottom;gradientColor=#7ea6e0;spacingBottom=-15;" parent="H88P1YSKS4xMaoFwpy47-1" vertex="1">
          <mxGeometry x="86" y="472" width="50" height="48" as="geometry" />
        </mxCell>
        <mxCell id="H88P1YSKS4xMaoFwpy47-14" value="" style="aspect=fixed;sketch=0;html=1;dashed=0;whitespace=wrap;fillColor=#dae8fc;strokeColor=#6c8ebf;points=[[0.005,0.63,0],[0.1,0.2,0],[0.9,0.2,0],[0.5,0,0],[0.995,0.63,0],[0.72,0.99,0],[0.5,1,0],[0.28,0.99,0]];shape=mxgraph.kubernetes.icon2;kubernetesLabel=1;prIcon=ing;verticalAlign=bottom;gradientColor=#7ea6e0;spacingBottom=-15;" parent="H88P1YSKS4xMaoFwpy47-1" vertex="1">
          <mxGeometry x="256" y="424" width="50" height="48" as="geometry" />
        </mxCell>
        <mxCell id="H88P1YSKS4xMaoFwpy47-15" value="" style="aspect=fixed;sketch=0;html=1;dashed=0;whitespace=wrap;fillColor=#dae8fc;strokeColor=#6c8ebf;points=[[0.005,0.63,0],[0.1,0.2,0],[0.9,0.2,0],[0.5,0,0],[0.995,0.63,0],[0.72,0.99,0],[0.5,1,0],[0.28,0.99,0]];shape=mxgraph.kubernetes.icon2;kubernetesLabel=1;prIcon=svc;verticalAlign=bottom;gradientColor=#7ea6e0;spacingBottom=-15;" parent="H88P1YSKS4xMaoFwpy47-1" vertex="1">
          <mxGeometry x="176" y="472" width="50" height="48" as="geometry" />
        </mxCell>
        <mxCell id="H88P1YSKS4xMaoFwpy47-16" value="application&lt;br&gt;pods" style="aspect=fixed;sketch=0;html=1;dashed=0;whitespace=wrap;fillColor=#dae8fc;strokeColor=#6c8ebf;points=[[0.005,0.63,0],[0.1,0.2,0],[0.9,0.2,0],[0.5,0,0],[0.995,0.63,0],[0.72,0.99,0],[0.5,1,0],[0.28,0.99,0]];shape=mxgraph.kubernetes.icon2;prIcon=pod;gradientColor=#7ea6e0;verticalAlign=bottom;spacingBottom=-15;" parent="H88P1YSKS4xMaoFwpy47-1" vertex="1">
          <mxGeometry x="96" y="545" width="50" height="48" as="geometry" />
        </mxCell>
        <mxCell id="H88P1YSKS4xMaoFwpy47-17" value="" style="aspect=fixed;sketch=0;html=1;dashed=0;whitespace=wrap;fillColor=#dae8fc;strokeColor=#6c8ebf;points=[[0.005,0.63,0],[0.1,0.2,0],[0.9,0.2,0],[0.5,0,0],[0.995,0.63,0],[0.72,0.99,0],[0.5,1,0],[0.28,0.99,0]];shape=mxgraph.kubernetes.icon2;prIcon=pod;gradientColor=#7ea6e0;verticalAlign=bottom;spacingBottom=-15;" parent="H88P1YSKS4xMaoFwpy47-1" vertex="1">
          <mxGeometry x="176" y="535" width="50" height="48" as="geometry" />
        </mxCell>
        <mxCell id="H88P1YSKS4xMaoFwpy47-18" value="application&lt;br&gt;pods" style="aspect=fixed;sketch=0;html=1;dashed=0;whitespace=wrap;fillColor=#dae8fc;strokeColor=#6c8ebf;points=[[0.005,0.63,0],[0.1,0.2,0],[0.9,0.2,0],[0.5,0,0],[0.995,0.63,0],[0.72,0.99,0],[0.5,1,0],[0.28,0.99,0]];shape=mxgraph.kubernetes.icon2;prIcon=pod;gradientColor=#7ea6e0;verticalAlign=bottom;spacingBottom=-15;" parent="H88P1YSKS4xMaoFwpy47-1" vertex="1">
          <mxGeometry x="186" y="545" width="50" height="48" as="geometry" />
        </mxCell>
        <mxCell id="H88P1YSKS4xMaoFwpy47-19" value="" style="endArrow=classic;html=1;rounded=0;exitX=1;exitY=0.5;exitDx=0;exitDy=0;entryX=0.194;entryY=0.548;entryDx=0;entryDy=0;entryPerimeter=0;" parent="H88P1YSKS4xMaoFwpy47-1" source="H88P1YSKS4xMaoFwpy47-4" target="H88P1YSKS4xMaoFwpy47-5" edge="1">
          <mxGeometry width="50" height="50" relative="1" as="geometry">
            <mxPoint x="-190" y="485" as="sourcePoint" />
            <mxPoint x="-140" y="435" as="targetPoint" />
          </mxGeometry>
        </mxCell>
        <mxCell id="H88P1YSKS4xMaoFwpy47-20" value="" style="endArrow=classic;html=1;rounded=0;exitX=0.875;exitY=0.5;exitDx=0;exitDy=0;exitPerimeter=0;entryX=0;entryY=0.5;entryDx=0;entryDy=0;entryPerimeter=0;" parent="H88P1YSKS4xMaoFwpy47-1" source="H88P1YSKS4xMaoFwpy47-5" target="H88P1YSKS4xMaoFwpy47-2" edge="1">
          <mxGeometry width="50" height="50" relative="1" as="geometry">
            <mxPoint x="-190" y="485" as="sourcePoint" />
            <mxPoint x="-140" y="435" as="targetPoint" />
          </mxGeometry>
        </mxCell>
        <mxCell id="H88P1YSKS4xMaoFwpy47-21" value="" style="endArrow=classic;html=1;rounded=0;exitX=1;exitY=0.5;exitDx=0;exitDy=0;exitPerimeter=0;entryX=0.005;entryY=0.63;entryDx=0;entryDy=0;entryPerimeter=0;" parent="H88P1YSKS4xMaoFwpy47-1" source="H88P1YSKS4xMaoFwpy47-2" target="H88P1YSKS4xMaoFwpy47-30" edge="1">
          <mxGeometry width="50" height="50" relative="1" as="geometry">
            <mxPoint x="-80" y="395" as="sourcePoint" />
            <mxPoint x="-34" y="435" as="targetPoint" />
          </mxGeometry>
        </mxCell>
        <mxCell id="H88P1YSKS4xMaoFwpy47-22" value="" style="endArrow=classic;html=1;rounded=0;entryX=0.5;entryY=0;entryDx=0;entryDy=0;entryPerimeter=0;exitX=0.995;exitY=0.63;exitDx=0;exitDy=0;exitPerimeter=0;edgeStyle=orthogonalEdgeStyle;" parent="H88P1YSKS4xMaoFwpy47-1" source="H88P1YSKS4xMaoFwpy47-10" target="H88P1YSKS4xMaoFwpy47-12" edge="1">
          <mxGeometry width="50" height="50" relative="1" as="geometry">
            <mxPoint x="-124" y="485" as="sourcePoint" />
            <mxPoint x="-74" y="435" as="targetPoint" />
          </mxGeometry>
        </mxCell>
        <mxCell id="H88P1YSKS4xMaoFwpy47-23" value="" style="endArrow=classic;html=1;rounded=0;entryX=0.5;entryY=0;entryDx=0;entryDy=0;entryPerimeter=0;exitX=0.995;exitY=0.63;exitDx=0;exitDy=0;exitPerimeter=0;edgeStyle=orthogonalEdgeStyle;" parent="H88P1YSKS4xMaoFwpy47-1" source="H88P1YSKS4xMaoFwpy47-10" target="H88P1YSKS4xMaoFwpy47-14" edge="1">
          <mxGeometry width="50" height="50" relative="1" as="geometry">
            <mxPoint x="36" y="421" as="sourcePoint" />
            <mxPoint x="81" y="424" as="targetPoint" />
          </mxGeometry>
        </mxCell>
        <mxCell id="H88P1YSKS4xMaoFwpy47-24" value="" style="endArrow=classic;html=1;rounded=0;entryX=0.5;entryY=0;entryDx=0;entryDy=0;entryPerimeter=0;exitX=0.995;exitY=0.63;exitDx=0;exitDy=0;exitPerimeter=0;edgeStyle=orthogonalEdgeStyle;" parent="H88P1YSKS4xMaoFwpy47-1" source="H88P1YSKS4xMaoFwpy47-12" target="H88P1YSKS4xMaoFwpy47-13" edge="1">
          <mxGeometry width="50" height="50" relative="1" as="geometry">
            <mxPoint x="-224" y="585" as="sourcePoint" />
            <mxPoint x="-174" y="535" as="targetPoint" />
          </mxGeometry>
        </mxCell>
        <mxCell id="H88P1YSKS4xMaoFwpy47-25" value="" style="endArrow=classic;html=1;rounded=0;entryX=0.5;entryY=0;entryDx=0;entryDy=0;entryPerimeter=0;exitX=0.995;exitY=0.63;exitDx=0;exitDy=0;exitPerimeter=0;edgeStyle=orthogonalEdgeStyle;" parent="H88P1YSKS4xMaoFwpy47-1" source="H88P1YSKS4xMaoFwpy47-12" target="H88P1YSKS4xMaoFwpy47-15" edge="1">
          <mxGeometry width="50" height="50" relative="1" as="geometry">
            <mxPoint x="106" y="464" as="sourcePoint" />
            <mxPoint x="121" y="482" as="targetPoint" />
          </mxGeometry>
        </mxCell>
        <mxCell id="cao-LwWJXPPxYJZbFWF1-4" value="routing" style="edgeLabel;html=1;align=center;verticalAlign=middle;resizable=0;points=[];labelBackgroundColor=none;fontSize=12;" parent="H88P1YSKS4xMaoFwpy47-25" vertex="1" connectable="0">
          <mxGeometry x="-0.3206" y="-3" relative="1" as="geometry">
            <mxPoint x="8" y="-17" as="offset" />
          </mxGeometry>
        </mxCell>
        <mxCell id="H88P1YSKS4xMaoFwpy47-26" value="" style="endArrow=classic;html=1;rounded=0;exitX=0.5;exitY=1;exitDx=0;exitDy=0;exitPerimeter=0;" parent="H88P1YSKS4xMaoFwpy47-1" source="H88P1YSKS4xMaoFwpy47-13" target="H88P1YSKS4xMaoFwpy47-11" edge="1">
          <mxGeometry width="50" height="50" relative="1" as="geometry">
            <mxPoint x="36" y="515" as="sourcePoint" />
            <mxPoint x="86" y="465" as="targetPoint" />
          </mxGeometry>
        </mxCell>
        <mxCell id="H88P1YSKS4xMaoFwpy47-27" value="" style="endArrow=classic;html=1;rounded=0;exitX=0.5;exitY=1;exitDx=0;exitDy=0;exitPerimeter=0;entryX=0.5;entryY=0;entryDx=0;entryDy=0;entryPerimeter=0;" parent="H88P1YSKS4xMaoFwpy47-1" source="H88P1YSKS4xMaoFwpy47-13" target="H88P1YSKS4xMaoFwpy47-16" edge="1">
          <mxGeometry width="50" height="50" relative="1" as="geometry">
            <mxPoint x="46" y="525" as="sourcePoint" />
            <mxPoint x="96" y="475" as="targetPoint" />
          </mxGeometry>
        </mxCell>
        <mxCell id="H88P1YSKS4xMaoFwpy47-28" value="" style="endArrow=classic;html=1;rounded=0;exitX=0.5;exitY=1;exitDx=0;exitDy=0;exitPerimeter=0;entryX=0.5;entryY=0;entryDx=0;entryDy=0;entryPerimeter=0;" parent="H88P1YSKS4xMaoFwpy47-1" source="H88P1YSKS4xMaoFwpy47-15" target="H88P1YSKS4xMaoFwpy47-17" edge="1">
          <mxGeometry width="50" height="50" relative="1" as="geometry">
            <mxPoint x="56" y="535" as="sourcePoint" />
            <mxPoint x="106" y="485" as="targetPoint" />
          </mxGeometry>
        </mxCell>
        <mxCell id="H88P1YSKS4xMaoFwpy47-29" value="" style="endArrow=classic;html=1;rounded=0;entryX=0.5;entryY=0;entryDx=0;entryDy=0;entryPerimeter=0;exitX=0.5;exitY=1;exitDx=0;exitDy=0;exitPerimeter=0;" parent="H88P1YSKS4xMaoFwpy47-1" source="H88P1YSKS4xMaoFwpy47-15" target="H88P1YSKS4xMaoFwpy47-18" edge="1">
          <mxGeometry width="50" height="50" relative="1" as="geometry">
            <mxPoint x="66" y="545" as="sourcePoint" />
            <mxPoint x="116" y="495" as="targetPoint" />
          </mxGeometry>
        </mxCell>
        <mxCell id="H88P1YSKS4xMaoFwpy47-30" value="" style="aspect=fixed;sketch=0;html=1;dashed=0;whitespace=wrap;fillColor=#ffcd28;strokeColor=#d79b00;points=[[0.005,0.63,0],[0.1,0.2,0],[0.9,0.2,0],[0.5,0,0],[0.995,0.63,0],[0.72,0.99,0],[0.5,1,0],[0.28,0.99,0]];shape=mxgraph.kubernetes.icon2;kubernetesLabel=1;prIcon=svc;verticalAlign=bottom;gradientColor=#ffa500;spacingBottom=-15;" parent="H88P1YSKS4xMaoFwpy47-1" vertex="1">
          <mxGeometry x="-110" y="366" width="50" height="48" as="geometry" />
        </mxCell>
        <mxCell id="H88P1YSKS4xMaoFwpy47-31" value="" style="endArrow=classic;html=1;rounded=0;entryX=0.005;entryY=0.63;entryDx=0;entryDy=0;entryPerimeter=0;exitX=0.995;exitY=0.63;exitDx=0;exitDy=0;exitPerimeter=0;" parent="H88P1YSKS4xMaoFwpy47-1" source="H88P1YSKS4xMaoFwpy47-30" target="H88P1YSKS4xMaoFwpy47-10" edge="1">
          <mxGeometry width="50" height="50" relative="1" as="geometry">
            <mxPoint x="-100" y="600" as="sourcePoint" />
            <mxPoint x="-50" y="550" as="targetPoint" />
          </mxGeometry>
        </mxCell>
        <mxCell id="cao-LwWJXPPxYJZbFWF1-1" value="&lt;pre style=&quot;font-size: 11px;&quot;&gt;&lt;span style=&quot;background-color: initial;&quot;&gt;&lt;font style=&quot;font-size: 11px;&quot;&gt;https://site.example.com&lt;br&gt;&lt;/font&gt;&lt;/span&gt;&lt;span style=&quot;background-color: initial;&quot;&gt;&lt;font style=&quot;font-size: 11px;&quot;&gt;https://api.example.com&lt;/font&gt;&lt;/span&gt;&lt;/pre&gt;" style="text;html=1;strokeColor=none;fillColor=none;align=left;verticalAlign=middle;whiteSpace=wrap;rounded=0;" parent="H88P1YSKS4xMaoFwpy47-1" vertex="1">
          <mxGeometry x="-460" y="435" width="155" height="30" as="geometry" />
        </mxCell>
        <mxCell id="cao-LwWJXPPxYJZbFWF1-2" value="&lt;pre style=&quot;font-size: 11px;&quot;&gt;&lt;span style=&quot;background-color: initial; white-space: normal;&quot;&gt;&lt;font face=&quot;Courier New&quot;&gt;site.example.com&lt;/font&gt;&lt;/span&gt;&lt;br&gt;&lt;/pre&gt;" style="text;html=1;strokeColor=none;fillColor=none;align=left;verticalAlign=middle;whiteSpace=wrap;rounded=0;" parent="H88P1YSKS4xMaoFwpy47-1" vertex="1">
          <mxGeometry x="-34" y="481" width="114" height="30" as="geometry" />
        </mxCell>
        <mxCell id="cao-LwWJXPPxYJZbFWF1-3" value="&lt;pre style=&quot;font-size: 11px;&quot;&gt;&lt;span style=&quot;background-color: initial;&quot;&gt;&lt;font style=&quot;font-size: 11px;&quot;&gt;api.example.com&lt;/font&gt;&lt;/span&gt;&lt;/pre&gt;" style="text;html=1;strokeColor=none;fillColor=none;align=left;verticalAlign=middle;whiteSpace=wrap;rounded=0;" parent="H88P1YSKS4xMaoFwpy47-1" vertex="1">
          <mxGeometry x="226" y="481" width="155" height="30" as="geometry" />
        </mxCell>
        <mxCell id="EJ8LAAeCU4CpVbYzzViv-0" value="" style="endArrow=open;html=1;rounded=0;entryX=0.995;entryY=0.63;entryDx=0;entryDy=0;entryPerimeter=0;exitX=0.5;exitY=0;exitDx=0;exitDy=0;exitPerimeter=0;edgeStyle=orthogonalEdgeStyle;dashed=1;strokeColor=#4D4D4D;endFill=0;" parent="H88P1YSKS4xMaoFwpy47-1" edge="1">
          <mxGeometry width="50" height="50" relative="1" as="geometry">
            <mxPoint x="71" y="424" as="sourcePoint" />
            <mxPoint x="96" y="454" as="targetPoint" />
            <Array as="points">
              <mxPoint x="70" y="454" />
            </Array>
          </mxGeometry>
        </mxCell>
      </root>
    </mxGraphModel>
  </diagram>
  <diagram name="architecture" id="upyRnPl23nfjg_SKPdZG">
    <mxGraphModel dx="2284" dy="858" grid="1" gridSize="10" guides="1" tooltips="1" connect="1" arrows="1" fold="1" page="1" pageScale="1" pageWidth="850" pageHeight="1100" math="0" shadow="0">
      <root>
        <mxCell id="0" />
        <mxCell id="1" parent="0" />
        <mxCell id="w3MYonhWAmHEk1qO92Sy-1" value="" style="rounded=0;whiteSpace=wrap;html=1;fillColor=none;strokeColor=none;" parent="1" vertex="1">
          <mxGeometry x="-580" y="250" width="1070" height="380" as="geometry" />
        </mxCell>
        <mxCell id="w3MYonhWAmHEk1qO92Sy-2" value="External&lt;br&gt;Load Balancer" style="sketch=0;points=[[0.015,0.015,0],[0.985,0.015,0],[0.985,0.985,0],[0.015,0.985,0],[0.25,0,0],[0.5,0,0],[0.75,0,0],[1,0.25,0],[1,0.5,0],[1,0.75,0],[0.75,1,0],[0.5,1,0],[0.25,1,0],[0,0.75,0],[0,0.5,0],[0,0.25,0]];verticalLabelPosition=bottom;html=1;verticalAlign=top;aspect=fixed;align=center;pointerEvents=1;shape=mxgraph.cisco19.rect;prIcon=load_balancer;fillColor=#fff2cc;strokeColor=#d6b656;gradientColor=#ffd966;" parent="1" vertex="1">
          <mxGeometry x="-250" y="370" width="64" height="50" as="geometry" />
        </mxCell>
        <mxCell id="w3MYonhWAmHEk1qO92Sy-3" value="web&lt;br&gt;client" style="rounded=1;whiteSpace=wrap;html=1;fillColor=#dae8fc;gradientColor=#7ea6e0;strokeColor=#6c8ebf;" parent="1" vertex="1">
          <mxGeometry x="-490" y="370" width="70" height="38" as="geometry" />
        </mxCell>
        <mxCell id="w3MYonhWAmHEk1qO92Sy-4" value="web&lt;br&gt;client" style="rounded=1;whiteSpace=wrap;html=1;fillColor=#dae8fc;gradientColor=#7ea6e0;strokeColor=#6c8ebf;" parent="1" vertex="1">
          <mxGeometry x="-480" y="380" width="70" height="38" as="geometry" />
        </mxCell>
        <mxCell id="w3MYonhWAmHEk1qO92Sy-5" value="" style="ellipse;shape=cloud;whiteSpace=wrap;html=1;fillColor=#f5f5f5;strokeColor=#666666;gradientColor=#b3b3b3;" parent="1" vertex="1">
          <mxGeometry x="-390" y="355" width="120" height="80" as="geometry" />
        </mxCell>
        <mxCell id="w3MYonhWAmHEk1qO92Sy-6" value="" style="rounded=1;whiteSpace=wrap;html=1;fillColor=#ffe6cc;strokeColor=#d79b00;arcSize=4;" parent="1" vertex="1">
          <mxGeometry x="-120" y="270" width="450" height="340" as="geometry" />
        </mxCell>
        <mxCell id="w3MYonhWAmHEk1qO92Sy-7" value="Kubernetes cluster" style="rounded=1;whiteSpace=wrap;html=1;fillColor=#ffcd28;gradientColor=#ffa500;strokeColor=#d79b00;" parent="1" vertex="1">
          <mxGeometry x="-120" y="270" width="450" height="20" as="geometry" />
        </mxCell>
        <mxCell id="w3MYonhWAmHEk1qO92Sy-8" value="" style="aspect=fixed;sketch=0;html=1;dashed=0;whitespace=wrap;fillColor=#ffcd28;strokeColor=#d79b00;points=[[0.005,0.63,0],[0.1,0.2,0],[0.9,0.2,0],[0.5,0,0],[0.995,0.63,0],[0.72,0.99,0],[0.5,1,0],[0.28,0.99,0]];shape=mxgraph.kubernetes.icon2;prIcon=pod;gradientColor=#ffa500;verticalAlign=bottom;spacingBottom=-15;" parent="1" vertex="1">
          <mxGeometry x="-34" y="360" width="50" height="48" as="geometry" />
        </mxCell>
        <mxCell id="w3MYonhWAmHEk1qO92Sy-9" value="Ingress&lt;br&gt;Controller" style="aspect=fixed;sketch=0;html=1;dashed=0;whitespace=wrap;fillColor=#ffcd28;strokeColor=#d79b00;points=[[0.005,0.63,0],[0.1,0.2,0],[0.9,0.2,0],[0.5,0,0],[0.995,0.63,0],[0.72,0.99,0],[0.5,1,0],[0.28,0.99,0]];shape=mxgraph.kubernetes.icon2;prIcon=pod;gradientColor=#ffa500;verticalAlign=bottom;spacingBottom=-15;" parent="1" vertex="1">
          <mxGeometry x="-24" y="366" width="50" height="48" as="geometry" />
        </mxCell>
        <mxCell id="w3MYonhWAmHEk1qO92Sy-10" value="" style="aspect=fixed;sketch=0;html=1;dashed=0;whitespace=wrap;fillColor=#dae8fc;strokeColor=#6c8ebf;points=[[0.005,0.63,0],[0.1,0.2,0],[0.9,0.2,0],[0.5,0,0],[0.995,0.63,0],[0.72,0.99,0],[0.5,1,0],[0.28,0.99,0]];shape=mxgraph.kubernetes.icon2;prIcon=pod;gradientColor=#7ea6e0;verticalAlign=bottom;spacingBottom=-15;" parent="1" vertex="1">
          <mxGeometry x="86" y="535" width="50" height="48" as="geometry" />
        </mxCell>
        <mxCell id="w3MYonhWAmHEk1qO92Sy-11" value="" style="aspect=fixed;sketch=0;html=1;dashed=0;whitespace=wrap;fillColor=#dae8fc;strokeColor=#6c8ebf;points=[[0.005,0.63,0],[0.1,0.2,0],[0.9,0.2,0],[0.5,0,0],[0.995,0.63,0],[0.72,0.99,0],[0.5,1,0],[0.28,0.99,0]];shape=mxgraph.kubernetes.icon2;kubernetesLabel=1;prIcon=ing;verticalAlign=bottom;gradientColor=#7ea6e0;spacingBottom=-15;" parent="1" vertex="1">
          <mxGeometry x="46" y="424" width="50" height="48" as="geometry" />
        </mxCell>
        <mxCell id="w3MYonhWAmHEk1qO92Sy-12" value="" style="aspect=fixed;sketch=0;html=1;dashed=0;whitespace=wrap;fillColor=#dae8fc;strokeColor=#6c8ebf;points=[[0.005,0.63,0],[0.1,0.2,0],[0.9,0.2,0],[0.5,0,0],[0.995,0.63,0],[0.72,0.99,0],[0.5,1,0],[0.28,0.99,0]];shape=mxgraph.kubernetes.icon2;kubernetesLabel=1;prIcon=svc;verticalAlign=bottom;gradientColor=#7ea6e0;spacingBottom=-15;" parent="1" vertex="1">
          <mxGeometry x="86" y="472" width="50" height="48" as="geometry" />
        </mxCell>
        <mxCell id="w3MYonhWAmHEk1qO92Sy-13" value="" style="aspect=fixed;sketch=0;html=1;dashed=0;whitespace=wrap;fillColor=#dae8fc;strokeColor=#6c8ebf;points=[[0.005,0.63,0],[0.1,0.2,0],[0.9,0.2,0],[0.5,0,0],[0.995,0.63,0],[0.72,0.99,0],[0.5,1,0],[0.28,0.99,0]];shape=mxgraph.kubernetes.icon2;kubernetesLabel=1;prIcon=ing;verticalAlign=bottom;gradientColor=#7ea6e0;spacingBottom=-15;" parent="1" vertex="1">
          <mxGeometry x="256" y="424" width="50" height="48" as="geometry" />
        </mxCell>
        <mxCell id="w3MYonhWAmHEk1qO92Sy-14" value="" style="aspect=fixed;sketch=0;html=1;dashed=0;whitespace=wrap;fillColor=#dae8fc;strokeColor=#6c8ebf;points=[[0.005,0.63,0],[0.1,0.2,0],[0.9,0.2,0],[0.5,0,0],[0.995,0.63,0],[0.72,0.99,0],[0.5,1,0],[0.28,0.99,0]];shape=mxgraph.kubernetes.icon2;kubernetesLabel=1;prIcon=svc;verticalAlign=bottom;gradientColor=#7ea6e0;spacingBottom=-15;" parent="1" vertex="1">
          <mxGeometry x="176" y="472" width="50" height="48" as="geometry" />
        </mxCell>
        <mxCell id="w3MYonhWAmHEk1qO92Sy-15" value="application&lt;br&gt;pods" style="aspect=fixed;sketch=0;html=1;dashed=0;whitespace=wrap;fillColor=#dae8fc;strokeColor=#6c8ebf;points=[[0.005,0.63,0],[0.1,0.2,0],[0.9,0.2,0],[0.5,0,0],[0.995,0.63,0],[0.72,0.99,0],[0.5,1,0],[0.28,0.99,0]];shape=mxgraph.kubernetes.icon2;prIcon=pod;gradientColor=#7ea6e0;verticalAlign=bottom;spacingBottom=-15;" parent="1" vertex="1">
          <mxGeometry x="96" y="545" width="50" height="48" as="geometry" />
        </mxCell>
        <mxCell id="w3MYonhWAmHEk1qO92Sy-16" value="" style="aspect=fixed;sketch=0;html=1;dashed=0;whitespace=wrap;fillColor=#dae8fc;strokeColor=#6c8ebf;points=[[0.005,0.63,0],[0.1,0.2,0],[0.9,0.2,0],[0.5,0,0],[0.995,0.63,0],[0.72,0.99,0],[0.5,1,0],[0.28,0.99,0]];shape=mxgraph.kubernetes.icon2;prIcon=pod;gradientColor=#7ea6e0;verticalAlign=bottom;spacingBottom=-15;" parent="1" vertex="1">
          <mxGeometry x="176" y="535" width="50" height="48" as="geometry" />
        </mxCell>
        <mxCell id="w3MYonhWAmHEk1qO92Sy-17" value="application&lt;br&gt;pods" style="aspect=fixed;sketch=0;html=1;dashed=0;whitespace=wrap;fillColor=#dae8fc;strokeColor=#6c8ebf;points=[[0.005,0.63,0],[0.1,0.2,0],[0.9,0.2,0],[0.5,0,0],[0.995,0.63,0],[0.72,0.99,0],[0.5,1,0],[0.28,0.99,0]];shape=mxgraph.kubernetes.icon2;prIcon=pod;gradientColor=#7ea6e0;verticalAlign=bottom;spacingBottom=-15;" parent="1" vertex="1">
          <mxGeometry x="186" y="545" width="50" height="48" as="geometry" />
        </mxCell>
        <mxCell id="w3MYonhWAmHEk1qO92Sy-18" value="" style="endArrow=classic;html=1;rounded=0;exitX=1;exitY=0.5;exitDx=0;exitDy=0;entryX=0.194;entryY=0.548;entryDx=0;entryDy=0;entryPerimeter=0;" parent="1" source="w3MYonhWAmHEk1qO92Sy-4" target="w3MYonhWAmHEk1qO92Sy-5" edge="1">
          <mxGeometry width="50" height="50" relative="1" as="geometry">
            <mxPoint x="-190" y="485" as="sourcePoint" />
            <mxPoint x="-140" y="435" as="targetPoint" />
          </mxGeometry>
        </mxCell>
        <mxCell id="w3MYonhWAmHEk1qO92Sy-19" value="" style="endArrow=classic;html=1;rounded=0;exitX=0.875;exitY=0.5;exitDx=0;exitDy=0;exitPerimeter=0;entryX=0;entryY=0.5;entryDx=0;entryDy=0;entryPerimeter=0;" parent="1" source="w3MYonhWAmHEk1qO92Sy-5" target="w3MYonhWAmHEk1qO92Sy-2" edge="1">
          <mxGeometry width="50" height="50" relative="1" as="geometry">
            <mxPoint x="-190" y="485" as="sourcePoint" />
            <mxPoint x="-140" y="435" as="targetPoint" />
          </mxGeometry>
        </mxCell>
        <mxCell id="w3MYonhWAmHEk1qO92Sy-20" value="" style="endArrow=classic;html=1;rounded=0;exitX=1;exitY=0.5;exitDx=0;exitDy=0;exitPerimeter=0;entryX=0.005;entryY=0.63;entryDx=0;entryDy=0;entryPerimeter=0;" parent="1" source="w3MYonhWAmHEk1qO92Sy-2" target="w3MYonhWAmHEk1qO92Sy-30" edge="1">
          <mxGeometry width="50" height="50" relative="1" as="geometry">
            <mxPoint x="-80" y="395" as="sourcePoint" />
            <mxPoint x="-34" y="435" as="targetPoint" />
          </mxGeometry>
        </mxCell>
        <mxCell id="w3MYonhWAmHEk1qO92Sy-21" value="" style="endArrow=classic;html=1;rounded=0;entryX=0.5;entryY=0;entryDx=0;entryDy=0;entryPerimeter=0;exitX=0.995;exitY=0.63;exitDx=0;exitDy=0;exitPerimeter=0;edgeStyle=orthogonalEdgeStyle;" parent="1" source="w3MYonhWAmHEk1qO92Sy-9" target="w3MYonhWAmHEk1qO92Sy-11" edge="1">
          <mxGeometry width="50" height="50" relative="1" as="geometry">
            <mxPoint x="-124" y="485" as="sourcePoint" />
            <mxPoint x="-74" y="435" as="targetPoint" />
          </mxGeometry>
        </mxCell>
        <mxCell id="w3MYonhWAmHEk1qO92Sy-22" value="" style="endArrow=classic;html=1;rounded=0;entryX=0.5;entryY=0;entryDx=0;entryDy=0;entryPerimeter=0;exitX=0.995;exitY=0.63;exitDx=0;exitDy=0;exitPerimeter=0;edgeStyle=orthogonalEdgeStyle;" parent="1" source="w3MYonhWAmHEk1qO92Sy-9" target="w3MYonhWAmHEk1qO92Sy-13" edge="1">
          <mxGeometry width="50" height="50" relative="1" as="geometry">
            <mxPoint x="36" y="421" as="sourcePoint" />
            <mxPoint x="81" y="424" as="targetPoint" />
          </mxGeometry>
        </mxCell>
        <mxCell id="w3MYonhWAmHEk1qO92Sy-23" value="" style="endArrow=classic;html=1;rounded=0;entryX=0.5;entryY=0;entryDx=0;entryDy=0;entryPerimeter=0;exitX=0.995;exitY=0.63;exitDx=0;exitDy=0;exitPerimeter=0;edgeStyle=orthogonalEdgeStyle;" parent="1" source="w3MYonhWAmHEk1qO92Sy-11" target="w3MYonhWAmHEk1qO92Sy-12" edge="1">
          <mxGeometry width="50" height="50" relative="1" as="geometry">
            <mxPoint x="-224" y="585" as="sourcePoint" />
            <mxPoint x="-174" y="535" as="targetPoint" />
          </mxGeometry>
        </mxCell>
        <mxCell id="w3MYonhWAmHEk1qO92Sy-24" value="" style="endArrow=classic;html=1;rounded=0;entryX=0.5;entryY=0;entryDx=0;entryDy=0;entryPerimeter=0;exitX=0.995;exitY=0.63;exitDx=0;exitDy=0;exitPerimeter=0;edgeStyle=orthogonalEdgeStyle;" parent="1" source="w3MYonhWAmHEk1qO92Sy-11" target="w3MYonhWAmHEk1qO92Sy-14" edge="1">
          <mxGeometry width="50" height="50" relative="1" as="geometry">
            <mxPoint x="106" y="464" as="sourcePoint" />
            <mxPoint x="121" y="482" as="targetPoint" />
          </mxGeometry>
        </mxCell>
        <mxCell id="w3MYonhWAmHEk1qO92Sy-25" value="routing" style="edgeLabel;html=1;align=center;verticalAlign=middle;resizable=0;points=[];labelBackgroundColor=none;fontSize=12;" parent="w3MYonhWAmHEk1qO92Sy-24" vertex="1" connectable="0">
          <mxGeometry x="-0.3206" y="-3" relative="1" as="geometry">
            <mxPoint x="8" y="-17" as="offset" />
          </mxGeometry>
        </mxCell>
        <mxCell id="w3MYonhWAmHEk1qO92Sy-26" value="" style="endArrow=classic;html=1;rounded=0;exitX=0.5;exitY=1;exitDx=0;exitDy=0;exitPerimeter=0;" parent="1" source="w3MYonhWAmHEk1qO92Sy-12" target="w3MYonhWAmHEk1qO92Sy-10" edge="1">
          <mxGeometry width="50" height="50" relative="1" as="geometry">
            <mxPoint x="36" y="515" as="sourcePoint" />
            <mxPoint x="86" y="465" as="targetPoint" />
          </mxGeometry>
        </mxCell>
        <mxCell id="w3MYonhWAmHEk1qO92Sy-27" value="" style="endArrow=classic;html=1;rounded=0;exitX=0.5;exitY=1;exitDx=0;exitDy=0;exitPerimeter=0;entryX=0.5;entryY=0;entryDx=0;entryDy=0;entryPerimeter=0;" parent="1" source="w3MYonhWAmHEk1qO92Sy-12" target="w3MYonhWAmHEk1qO92Sy-15" edge="1">
          <mxGeometry width="50" height="50" relative="1" as="geometry">
            <mxPoint x="46" y="525" as="sourcePoint" />
            <mxPoint x="96" y="475" as="targetPoint" />
          </mxGeometry>
        </mxCell>
        <mxCell id="w3MYonhWAmHEk1qO92Sy-28" value="" style="endArrow=classic;html=1;rounded=0;exitX=0.5;exitY=1;exitDx=0;exitDy=0;exitPerimeter=0;entryX=0.5;entryY=0;entryDx=0;entryDy=0;entryPerimeter=0;" parent="1" source="w3MYonhWAmHEk1qO92Sy-14" target="w3MYonhWAmHEk1qO92Sy-16" edge="1">
          <mxGeometry width="50" height="50" relative="1" as="geometry">
            <mxPoint x="56" y="535" as="sourcePoint" />
            <mxPoint x="106" y="485" as="targetPoint" />
          </mxGeometry>
        </mxCell>
        <mxCell id="w3MYonhWAmHEk1qO92Sy-29" value="" style="endArrow=classic;html=1;rounded=0;entryX=0.5;entryY=0;entryDx=0;entryDy=0;entryPerimeter=0;exitX=0.5;exitY=1;exitDx=0;exitDy=0;exitPerimeter=0;" parent="1" source="w3MYonhWAmHEk1qO92Sy-14" target="w3MYonhWAmHEk1qO92Sy-17" edge="1">
          <mxGeometry width="50" height="50" relative="1" as="geometry">
            <mxPoint x="66" y="545" as="sourcePoint" />
            <mxPoint x="116" y="495" as="targetPoint" />
          </mxGeometry>
        </mxCell>
        <mxCell id="w3MYonhWAmHEk1qO92Sy-30" value="" style="aspect=fixed;sketch=0;html=1;dashed=0;whitespace=wrap;fillColor=#ffcd28;strokeColor=#d79b00;points=[[0.005,0.63,0],[0.1,0.2,0],[0.9,0.2,0],[0.5,0,0],[0.995,0.63,0],[0.72,0.99,0],[0.5,1,0],[0.28,0.99,0]];shape=mxgraph.kubernetes.icon2;kubernetesLabel=1;prIcon=svc;verticalAlign=bottom;gradientColor=#ffa500;spacingBottom=-15;" parent="1" vertex="1">
          <mxGeometry x="-110" y="366" width="50" height="48" as="geometry" />
        </mxCell>
        <mxCell id="w3MYonhWAmHEk1qO92Sy-31" value="" style="endArrow=classic;html=1;rounded=0;entryX=0.005;entryY=0.63;entryDx=0;entryDy=0;entryPerimeter=0;exitX=0.995;exitY=0.63;exitDx=0;exitDy=0;exitPerimeter=0;" parent="1" source="w3MYonhWAmHEk1qO92Sy-30" target="w3MYonhWAmHEk1qO92Sy-9" edge="1">
          <mxGeometry width="50" height="50" relative="1" as="geometry">
            <mxPoint x="-100" y="600" as="sourcePoint" />
            <mxPoint x="-50" y="550" as="targetPoint" />
          </mxGeometry>
        </mxCell>
        <mxCell id="w3MYonhWAmHEk1qO92Sy-32" value="&lt;pre style=&quot;font-size: 11px;&quot;&gt;&lt;span style=&quot;background-color: initial;&quot;&gt;&lt;font style=&quot;font-size: 11px;&quot;&gt;https://site.example.com&lt;br&gt;&lt;/font&gt;&lt;/span&gt;&lt;span style=&quot;background-color: initial;&quot;&gt;&lt;font style=&quot;font-size: 11px;&quot;&gt;https://api.example.com&lt;/font&gt;&lt;/span&gt;&lt;/pre&gt;" style="text;html=1;strokeColor=none;fillColor=none;align=left;verticalAlign=middle;whiteSpace=wrap;rounded=0;" parent="1" vertex="1">
          <mxGeometry x="-460" y="435" width="155" height="30" as="geometry" />
        </mxCell>
        <mxCell id="w3MYonhWAmHEk1qO92Sy-34" value="&lt;pre style=&quot;font-size: 11px;&quot;&gt;&lt;span style=&quot;background-color: initial;&quot;&gt;&lt;font style=&quot;font-size: 11px;&quot;&gt;api.example.com&lt;/font&gt;&lt;/span&gt;&lt;/pre&gt;" style="text;html=1;strokeColor=none;fillColor=none;align=left;verticalAlign=middle;whiteSpace=wrap;rounded=0;" parent="1" vertex="1">
          <mxGeometry x="226" y="481" width="155" height="30" as="geometry" />
        </mxCell>
        <mxCell id="w3MYonhWAmHEk1qO92Sy-35" value="Controller" style="aspect=fixed;sketch=0;html=1;dashed=0;whitespace=wrap;fillColor=#e6d0de;strokeColor=#996185;points=[[0.005,0.63,0],[0.1,0.2,0],[0.9,0.2,0],[0.5,0,0],[0.995,0.63,0],[0.72,0.99,0],[0.5,1,0],[0.28,0.99,0]];shape=mxgraph.kubernetes.icon2;prIcon=pod;gradientColor=#d5739d;verticalAlign=bottom;spacingBottom=-15;" parent="1" vertex="1">
          <mxGeometry x="162" y="295" width="50" height="48" as="geometry" />
        </mxCell>
        <mxCell id="iJyXTYFSzZ3Hs4dzafsZ-1" value="watch" style="endArrow=classic;html=1;rounded=0;exitX=0.28;exitY=0.99;exitDx=0;exitDy=0;exitPerimeter=0;entryX=0.9;entryY=0.2;entryDx=0;entryDy=0;entryPerimeter=0;dashed=1;labelBackgroundColor=none;" parent="1" source="w3MYonhWAmHEk1qO92Sy-35" target="w3MYonhWAmHEk1qO92Sy-11" edge="1">
          <mxGeometry x="0.2958" y="12" width="50" height="50" relative="1" as="geometry">
            <mxPoint x="-150" y="470" as="sourcePoint" />
            <mxPoint x="-100" y="420" as="targetPoint" />
            <mxPoint as="offset" />
          </mxGeometry>
        </mxCell>
        <mxCell id="iJyXTYFSzZ3Hs4dzafsZ-2" value="" style="endArrow=classic;html=1;rounded=0;exitX=0.72;exitY=0.99;exitDx=0;exitDy=0;exitPerimeter=0;entryX=0.1;entryY=0.2;entryDx=0;entryDy=0;entryPerimeter=0;dashed=1;" parent="1" source="w3MYonhWAmHEk1qO92Sy-35" target="w3MYonhWAmHEk1qO92Sy-13" edge="1">
          <mxGeometry width="50" height="50" relative="1" as="geometry">
            <mxPoint x="150" y="370" as="sourcePoint" />
            <mxPoint x="101" y="444" as="targetPoint" />
          </mxGeometry>
        </mxCell>
        <mxCell id="iJyXTYFSzZ3Hs4dzafsZ-3" value="Issuer" style="aspect=fixed;sketch=0;html=1;dashed=0;whitespace=wrap;fillColor=#e6d0de;strokeColor=#996185;points=[[0.005,0.63,0],[0.1,0.2,0],[0.9,0.2,0],[0.5,0,0],[0.995,0.63,0],[0.72,0.99,0],[0.5,1,0],[0.28,0.99,0]];shape=mxgraph.kubernetes.icon2;kubernetesLabel=1;prIcon=crd;verticalAlign=bottom;gradientColor=#d5739d;spacingBottom=-15;" parent="1" vertex="1">
          <mxGeometry x="55.25" y="312" width="50" height="48" as="geometry" />
        </mxCell>
        <mxCell id="iJyXTYFSzZ3Hs4dzafsZ-4" value="" style="endArrow=classic;html=1;rounded=0;exitX=0.005;exitY=0.63;exitDx=0;exitDy=0;exitPerimeter=0;entryX=0.995;entryY=0.63;entryDx=0;entryDy=0;entryPerimeter=0;dashed=1;" parent="1" source="w3MYonhWAmHEk1qO92Sy-35" target="iJyXTYFSzZ3Hs4dzafsZ-3" edge="1">
          <mxGeometry width="50" height="50" relative="1" as="geometry">
            <mxPoint x="150" y="370" as="sourcePoint" />
            <mxPoint x="101" y="444" as="targetPoint" />
          </mxGeometry>
        </mxCell>
        <mxCell id="iJyXTYFSzZ3Hs4dzafsZ-6" value="&lt;font style=&quot;font-size: 10px;&quot;&gt;certificate&lt;br&gt;provisioning&lt;br&gt;workflow&lt;/font&gt;" style="endArrow=classic;html=1;rounded=0;exitX=0.995;exitY=0.63;exitDx=0;exitDy=0;exitPerimeter=0;dashed=1;labelBackgroundColor=none;" parent="1" source="w3MYonhWAmHEk1qO92Sy-35" target="iJyXTYFSzZ3Hs4dzafsZ-8" edge="1">
          <mxGeometry x="0.0552" y="-25" width="50" height="50" relative="1" as="geometry">
            <mxPoint x="136" y="352" as="sourcePoint" />
            <mxPoint x="256.25" y="325.24" as="targetPoint" />
            <mxPoint as="offset" />
          </mxGeometry>
        </mxCell>
        <mxCell id="iJyXTYFSzZ3Hs4dzafsZ-8" value="External&lt;br&gt;Certificate&lt;br&gt;Authority" style="sketch=0;points=[[0,0,0],[0.25,0,0],[0.5,0,0],[0.75,0,0],[1,0,0],[0,1,0],[0.25,1,0],[0.5,1,0],[0.75,1,0],[1,1,0],[0,0.25,0],[0,0.5,0],[0,0.75,0],[1,0.25,0],[1,0.5,0],[1,0.75,0]];outlineConnect=0;fontColor=#232F3E;fillColor=#DD344C;strokeColor=#ffffff;dashed=0;verticalLabelPosition=bottom;verticalAlign=top;align=center;html=1;fontSize=12;fontStyle=0;aspect=fixed;shape=mxgraph.aws4.resourceIcon;resIcon=mxgraph.aws4.certificate_manager_3;" parent="1" vertex="1">
          <mxGeometry x="360" y="307" width="36" height="36" as="geometry" />
        </mxCell>
        <mxCell id="Rl9WrUA7Fc8m7fV8DtfA-1" value="&lt;pre style=&quot;font-size: 11px;&quot;&gt;&lt;span style=&quot;background-color: initial; white-space: normal;&quot;&gt;&lt;font face=&quot;Courier New&quot;&gt;site.example.com&lt;/font&gt;&lt;/span&gt;&lt;br&gt;&lt;/pre&gt;" style="text;html=1;strokeColor=none;fillColor=none;align=left;verticalAlign=middle;whiteSpace=wrap;rounded=0;" parent="1" vertex="1">
          <mxGeometry x="-34" y="481" width="114" height="30" as="geometry" />
        </mxCell>
        <mxCell id="24xuXMNDTkmn_etwdoKL-1" value="" style="endArrow=open;html=1;rounded=0;entryX=0.995;entryY=0.63;entryDx=0;entryDy=0;entryPerimeter=0;exitX=0.5;exitY=0;exitDx=0;exitDy=0;exitPerimeter=0;edgeStyle=orthogonalEdgeStyle;dashed=1;strokeColor=#4D4D4D;endFill=0;" parent="1" edge="1">
          <mxGeometry width="50" height="50" relative="1" as="geometry">
            <mxPoint x="71" y="424" as="sourcePoint" />
            <mxPoint x="96" y="454" as="targetPoint" />
            <Array as="points">
              <mxPoint x="70" y="454" />
            </Array>
          </mxGeometry>
        </mxCell>
      </root>
    </mxGraphModel>
  </diagram>
  <diagram id="uMUcNCkE3vjz6aGQ7KV3" name="acme">
    <mxGraphModel dx="2284" dy="858" grid="1" gridSize="10" guides="1" tooltips="1" connect="1" arrows="1" fold="1" page="1" pageScale="1" pageWidth="850" pageHeight="1100" math="0" shadow="0">
      <root>
        <mxCell id="0" />
        <mxCell id="1" parent="0" />
        <mxCell id="8qg5EisyoNSNQX34VqJG-1" value="" style="rounded=0;whiteSpace=wrap;html=1;fillColor=none;strokeColor=none;" parent="1" vertex="1">
          <mxGeometry x="-520" y="230" width="1070" height="390" as="geometry" />
        </mxCell>
        <mxCell id="8qg5EisyoNSNQX34VqJG-6" value="" style="rounded=1;whiteSpace=wrap;html=1;fillColor=#ffe6cc;strokeColor=#d79b00;arcSize=4;" parent="1" vertex="1">
          <mxGeometry x="-120" y="260" width="450" height="340" as="geometry" />
        </mxCell>
        <mxCell id="8qg5EisyoNSNQX34VqJG-7" value="Kubernetes cluster" style="rounded=1;whiteSpace=wrap;html=1;fillColor=#ffcd28;gradientColor=#ffa500;strokeColor=#d79b00;" parent="1" vertex="1">
          <mxGeometry x="-120" y="260" width="450" height="20" as="geometry" />
        </mxCell>
        <mxCell id="GbkfaLLLhaC3yOSEger6-1" value="" style="rounded=0;whiteSpace=wrap;html=1;fillColor=none;dashed=1;" parent="1" vertex="1">
          <mxGeometry x="100" y="360" width="220" height="70" as="geometry" />
        </mxCell>
        <mxCell id="8qg5EisyoNSNQX34VqJG-2" value="External&lt;br&gt;Load Balancer" style="sketch=0;points=[[0.015,0.015,0],[0.985,0.015,0],[0.985,0.985,0],[0.015,0.985,0],[0.25,0,0],[0.5,0,0],[0.75,0,0],[1,0.25,0],[1,0.5,0],[1,0.75,0],[0.75,1,0],[0.5,1,0],[0.25,1,0],[0,0.75,0],[0,0.5,0],[0,0.25,0]];verticalLabelPosition=bottom;html=1;verticalAlign=top;aspect=fixed;align=center;pointerEvents=1;shape=mxgraph.cisco19.rect;prIcon=load_balancer;fillColor=#fff2cc;strokeColor=#d6b656;gradientColor=#ffd966;" parent="1" vertex="1">
          <mxGeometry x="-250" y="370" width="64" height="50" as="geometry" />
        </mxCell>
        <mxCell id="8qg5EisyoNSNQX34VqJG-3" value="web&lt;br&gt;client" style="rounded=1;whiteSpace=wrap;html=1;fillColor=#dae8fc;gradientColor=#7ea6e0;strokeColor=#6c8ebf;" parent="1" vertex="1">
          <mxGeometry x="-490" y="370" width="70" height="38" as="geometry" />
        </mxCell>
        <mxCell id="8qg5EisyoNSNQX34VqJG-4" value="web&lt;br&gt;client" style="rounded=1;whiteSpace=wrap;html=1;fillColor=#dae8fc;gradientColor=#7ea6e0;strokeColor=#6c8ebf;" parent="1" vertex="1">
          <mxGeometry x="-480" y="380" width="70" height="38" as="geometry" />
        </mxCell>
        <mxCell id="8qg5EisyoNSNQX34VqJG-5" value="" style="ellipse;shape=cloud;whiteSpace=wrap;html=1;fillColor=#f5f5f5;strokeColor=#666666;gradientColor=#b3b3b3;" parent="1" vertex="1">
          <mxGeometry x="-390" y="355" width="120" height="80" as="geometry" />
        </mxCell>
        <mxCell id="8qg5EisyoNSNQX34VqJG-8" value="" style="aspect=fixed;sketch=0;html=1;dashed=0;whitespace=wrap;fillColor=#ffcd28;strokeColor=#d79b00;points=[[0.005,0.63,0],[0.1,0.2,0],[0.9,0.2,0],[0.5,0,0],[0.995,0.63,0],[0.72,0.99,0],[0.5,1,0],[0.28,0.99,0]];shape=mxgraph.kubernetes.icon2;prIcon=pod;gradientColor=#ffa500;verticalAlign=bottom;spacingBottom=-15;" parent="1" vertex="1">
          <mxGeometry x="-34" y="360" width="50" height="48" as="geometry" />
        </mxCell>
        <mxCell id="8qg5EisyoNSNQX34VqJG-9" value="Ingress&lt;br&gt;Controller" style="aspect=fixed;sketch=0;html=1;dashed=0;whitespace=wrap;fillColor=#ffcd28;strokeColor=#d79b00;points=[[0.005,0.63,0],[0.1,0.2,0],[0.9,0.2,0],[0.5,0,0],[0.995,0.63,0],[0.72,0.99,0],[0.5,1,0],[0.28,0.99,0]];shape=mxgraph.kubernetes.icon2;prIcon=pod;gradientColor=#ffa500;verticalAlign=bottom;spacingBottom=-15;" parent="1" vertex="1">
          <mxGeometry x="-24" y="366" width="50" height="48" as="geometry" />
        </mxCell>
        <mxCell id="8qg5EisyoNSNQX34VqJG-10" value="" style="aspect=fixed;sketch=0;html=1;dashed=0;whitespace=wrap;fillColor=#dae8fc;strokeColor=#6c8ebf;points=[[0.005,0.63,0],[0.1,0.2,0],[0.9,0.2,0],[0.5,0,0],[0.995,0.63,0],[0.72,0.99,0],[0.5,1,0],[0.28,0.99,0]];shape=mxgraph.kubernetes.icon2;prIcon=pod;gradientColor=#7ea6e0;verticalAlign=bottom;spacingBottom=-15;" parent="1" vertex="1">
          <mxGeometry x="86" y="535" width="50" height="48" as="geometry" />
        </mxCell>
        <mxCell id="8qg5EisyoNSNQX34VqJG-11" value="" style="aspect=fixed;sketch=0;html=1;dashed=0;whitespace=wrap;fillColor=#dae8fc;strokeColor=#6c8ebf;points=[[0.005,0.63,0],[0.1,0.2,0],[0.9,0.2,0],[0.5,0,0],[0.995,0.63,0],[0.72,0.99,0],[0.5,1,0],[0.28,0.99,0]];shape=mxgraph.kubernetes.icon2;kubernetesLabel=1;prIcon=ing;verticalAlign=bottom;gradientColor=#7ea6e0;spacingBottom=-15;" parent="1" vertex="1">
          <mxGeometry x="46" y="424" width="50" height="48" as="geometry" />
        </mxCell>
        <mxCell id="8qg5EisyoNSNQX34VqJG-12" value="" style="aspect=fixed;sketch=0;html=1;dashed=0;whitespace=wrap;fillColor=#dae8fc;strokeColor=#6c8ebf;points=[[0.005,0.63,0],[0.1,0.2,0],[0.9,0.2,0],[0.5,0,0],[0.995,0.63,0],[0.72,0.99,0],[0.5,1,0],[0.28,0.99,0]];shape=mxgraph.kubernetes.icon2;kubernetesLabel=1;prIcon=svc;verticalAlign=bottom;gradientColor=#7ea6e0;spacingBottom=-15;" parent="1" vertex="1">
          <mxGeometry x="86" y="472" width="50" height="48" as="geometry" />
        </mxCell>
        <mxCell id="8qg5EisyoNSNQX34VqJG-14" value="" style="aspect=fixed;sketch=0;html=1;dashed=0;whitespace=wrap;fillColor=#dae8fc;strokeColor=#6c8ebf;points=[[0.005,0.63,0],[0.1,0.2,0],[0.9,0.2,0],[0.5,0,0],[0.995,0.63,0],[0.72,0.99,0],[0.5,1,0],[0.28,0.99,0]];shape=mxgraph.kubernetes.icon2;kubernetesLabel=1;prIcon=svc;verticalAlign=bottom;gradientColor=#7ea6e0;spacingBottom=-15;" parent="1" vertex="1">
          <mxGeometry x="176" y="472" width="50" height="48" as="geometry" />
        </mxCell>
        <mxCell id="8qg5EisyoNSNQX34VqJG-15" value="application&lt;br&gt;pods" style="aspect=fixed;sketch=0;html=1;dashed=0;whitespace=wrap;fillColor=#dae8fc;strokeColor=#6c8ebf;points=[[0.005,0.63,0],[0.1,0.2,0],[0.9,0.2,0],[0.5,0,0],[0.995,0.63,0],[0.72,0.99,0],[0.5,1,0],[0.28,0.99,0]];shape=mxgraph.kubernetes.icon2;prIcon=pod;gradientColor=#7ea6e0;verticalAlign=bottom;spacingBottom=-15;" parent="1" vertex="1">
          <mxGeometry x="96" y="545" width="50" height="48" as="geometry" />
        </mxCell>
        <mxCell id="8qg5EisyoNSNQX34VqJG-16" value="" style="aspect=fixed;sketch=0;html=1;dashed=0;whitespace=wrap;fillColor=#dae8fc;strokeColor=#6c8ebf;points=[[0.005,0.63,0],[0.1,0.2,0],[0.9,0.2,0],[0.5,0,0],[0.995,0.63,0],[0.72,0.99,0],[0.5,1,0],[0.28,0.99,0]];shape=mxgraph.kubernetes.icon2;prIcon=pod;gradientColor=#7ea6e0;verticalAlign=bottom;spacingBottom=-15;" parent="1" vertex="1">
          <mxGeometry x="176" y="535" width="50" height="48" as="geometry" />
        </mxCell>
        <mxCell id="8qg5EisyoNSNQX34VqJG-17" value="application&lt;br&gt;pods" style="aspect=fixed;sketch=0;html=1;dashed=0;whitespace=wrap;fillColor=#dae8fc;strokeColor=#6c8ebf;points=[[0.005,0.63,0],[0.1,0.2,0],[0.9,0.2,0],[0.5,0,0],[0.995,0.63,0],[0.72,0.99,0],[0.5,1,0],[0.28,0.99,0]];shape=mxgraph.kubernetes.icon2;prIcon=pod;gradientColor=#7ea6e0;verticalAlign=bottom;spacingBottom=-15;" parent="1" vertex="1">
          <mxGeometry x="186" y="545" width="50" height="48" as="geometry" />
        </mxCell>
        <mxCell id="8qg5EisyoNSNQX34VqJG-18" value="" style="endArrow=classic;html=1;rounded=0;exitX=1;exitY=0.5;exitDx=0;exitDy=0;entryX=0.194;entryY=0.548;entryDx=0;entryDy=0;entryPerimeter=0;" parent="1" source="8qg5EisyoNSNQX34VqJG-4" target="8qg5EisyoNSNQX34VqJG-5" edge="1">
          <mxGeometry width="50" height="50" relative="1" as="geometry">
            <mxPoint x="-190" y="485" as="sourcePoint" />
            <mxPoint x="-140" y="435" as="targetPoint" />
          </mxGeometry>
        </mxCell>
        <mxCell id="8qg5EisyoNSNQX34VqJG-19" value="" style="endArrow=classic;html=1;rounded=0;exitX=0.875;exitY=0.5;exitDx=0;exitDy=0;exitPerimeter=0;entryX=0;entryY=0.5;entryDx=0;entryDy=0;entryPerimeter=0;" parent="1" source="8qg5EisyoNSNQX34VqJG-5" target="8qg5EisyoNSNQX34VqJG-2" edge="1">
          <mxGeometry width="50" height="50" relative="1" as="geometry">
            <mxPoint x="-190" y="485" as="sourcePoint" />
            <mxPoint x="-140" y="435" as="targetPoint" />
          </mxGeometry>
        </mxCell>
        <mxCell id="8qg5EisyoNSNQX34VqJG-20" value="" style="endArrow=classic;html=1;rounded=0;exitX=1;exitY=0.5;exitDx=0;exitDy=0;exitPerimeter=0;entryX=0.005;entryY=0.63;entryDx=0;entryDy=0;entryPerimeter=0;" parent="1" source="8qg5EisyoNSNQX34VqJG-2" target="8qg5EisyoNSNQX34VqJG-30" edge="1">
          <mxGeometry width="50" height="50" relative="1" as="geometry">
            <mxPoint x="-80" y="395" as="sourcePoint" />
            <mxPoint x="-34" y="435" as="targetPoint" />
          </mxGeometry>
        </mxCell>
        <mxCell id="8qg5EisyoNSNQX34VqJG-21" value="" style="endArrow=classic;html=1;rounded=0;entryX=0.5;entryY=0;entryDx=0;entryDy=0;entryPerimeter=0;exitX=0.995;exitY=0.63;exitDx=0;exitDy=0;exitPerimeter=0;edgeStyle=orthogonalEdgeStyle;" parent="1" source="8qg5EisyoNSNQX34VqJG-9" target="8qg5EisyoNSNQX34VqJG-11" edge="1">
          <mxGeometry width="50" height="50" relative="1" as="geometry">
            <mxPoint x="-124" y="485" as="sourcePoint" />
            <mxPoint x="-74" y="435" as="targetPoint" />
          </mxGeometry>
        </mxCell>
        <mxCell id="8qg5EisyoNSNQX34VqJG-23" value="" style="endArrow=classic;html=1;rounded=0;entryX=0.5;entryY=0;entryDx=0;entryDy=0;entryPerimeter=0;exitX=0.995;exitY=0.63;exitDx=0;exitDy=0;exitPerimeter=0;edgeStyle=orthogonalEdgeStyle;" parent="1" source="8qg5EisyoNSNQX34VqJG-11" target="8qg5EisyoNSNQX34VqJG-12" edge="1">
          <mxGeometry width="50" height="50" relative="1" as="geometry">
            <mxPoint x="-224" y="585" as="sourcePoint" />
            <mxPoint x="-174" y="535" as="targetPoint" />
          </mxGeometry>
        </mxCell>
        <mxCell id="8qg5EisyoNSNQX34VqJG-24" value="" style="endArrow=classic;html=1;rounded=0;entryX=0.5;entryY=0;entryDx=0;entryDy=0;entryPerimeter=0;exitX=0.995;exitY=0.63;exitDx=0;exitDy=0;exitPerimeter=0;edgeStyle=orthogonalEdgeStyle;" parent="1" source="8qg5EisyoNSNQX34VqJG-11" target="8qg5EisyoNSNQX34VqJG-14" edge="1">
          <mxGeometry width="50" height="50" relative="1" as="geometry">
            <mxPoint x="106" y="464" as="sourcePoint" />
            <mxPoint x="121" y="482" as="targetPoint" />
          </mxGeometry>
        </mxCell>
        <mxCell id="8qg5EisyoNSNQX34VqJG-25" value="routing" style="edgeLabel;html=1;align=center;verticalAlign=middle;resizable=0;points=[];labelBackgroundColor=none;fontSize=12;" parent="8qg5EisyoNSNQX34VqJG-24" vertex="1" connectable="0">
          <mxGeometry x="-0.3206" y="-3" relative="1" as="geometry">
            <mxPoint x="23" y="3" as="offset" />
          </mxGeometry>
        </mxCell>
        <mxCell id="xcZUWeLbqJ_Lz7BJmRyv-1" value="routing" style="edgeLabel;html=1;align=center;verticalAlign=middle;resizable=0;points=[];labelBackgroundColor=none;fontSize=12;" parent="8qg5EisyoNSNQX34VqJG-24" vertex="1" connectable="0">
          <mxGeometry x="-0.3206" y="-3" relative="1" as="geometry">
            <mxPoint x="-82" y="-73" as="offset" />
          </mxGeometry>
        </mxCell>
        <mxCell id="8qg5EisyoNSNQX34VqJG-26" value="" style="endArrow=classic;html=1;rounded=0;exitX=0.5;exitY=1;exitDx=0;exitDy=0;exitPerimeter=0;" parent="1" source="8qg5EisyoNSNQX34VqJG-12" target="8qg5EisyoNSNQX34VqJG-10" edge="1">
          <mxGeometry width="50" height="50" relative="1" as="geometry">
            <mxPoint x="36" y="515" as="sourcePoint" />
            <mxPoint x="86" y="465" as="targetPoint" />
          </mxGeometry>
        </mxCell>
        <mxCell id="8qg5EisyoNSNQX34VqJG-27" value="" style="endArrow=classic;html=1;rounded=0;exitX=0.5;exitY=1;exitDx=0;exitDy=0;exitPerimeter=0;entryX=0.5;entryY=0;entryDx=0;entryDy=0;entryPerimeter=0;" parent="1" source="8qg5EisyoNSNQX34VqJG-12" target="8qg5EisyoNSNQX34VqJG-15" edge="1">
          <mxGeometry width="50" height="50" relative="1" as="geometry">
            <mxPoint x="46" y="525" as="sourcePoint" />
            <mxPoint x="96" y="475" as="targetPoint" />
          </mxGeometry>
        </mxCell>
        <mxCell id="8qg5EisyoNSNQX34VqJG-28" value="" style="endArrow=classic;html=1;rounded=0;exitX=0.5;exitY=1;exitDx=0;exitDy=0;exitPerimeter=0;entryX=0.5;entryY=0;entryDx=0;entryDy=0;entryPerimeter=0;" parent="1" source="8qg5EisyoNSNQX34VqJG-14" target="8qg5EisyoNSNQX34VqJG-16" edge="1">
          <mxGeometry width="50" height="50" relative="1" as="geometry">
            <mxPoint x="56" y="535" as="sourcePoint" />
            <mxPoint x="106" y="485" as="targetPoint" />
          </mxGeometry>
        </mxCell>
        <mxCell id="8qg5EisyoNSNQX34VqJG-29" value="" style="endArrow=classic;html=1;rounded=0;entryX=0.5;entryY=0;entryDx=0;entryDy=0;entryPerimeter=0;exitX=0.5;exitY=1;exitDx=0;exitDy=0;exitPerimeter=0;" parent="1" source="8qg5EisyoNSNQX34VqJG-14" target="8qg5EisyoNSNQX34VqJG-17" edge="1">
          <mxGeometry width="50" height="50" relative="1" as="geometry">
            <mxPoint x="66" y="545" as="sourcePoint" />
            <mxPoint x="116" y="495" as="targetPoint" />
          </mxGeometry>
        </mxCell>
        <mxCell id="8qg5EisyoNSNQX34VqJG-30" value="" style="aspect=fixed;sketch=0;html=1;dashed=0;whitespace=wrap;fillColor=#ffcd28;strokeColor=#d79b00;points=[[0.005,0.63,0],[0.1,0.2,0],[0.9,0.2,0],[0.5,0,0],[0.995,0.63,0],[0.72,0.99,0],[0.5,1,0],[0.28,0.99,0]];shape=mxgraph.kubernetes.icon2;kubernetesLabel=1;prIcon=svc;verticalAlign=bottom;gradientColor=#ffa500;spacingBottom=-15;" parent="1" vertex="1">
          <mxGeometry x="-110" y="366" width="50" height="48" as="geometry" />
        </mxCell>
        <mxCell id="8qg5EisyoNSNQX34VqJG-31" value="" style="endArrow=classic;html=1;rounded=0;entryX=0.005;entryY=0.63;entryDx=0;entryDy=0;entryPerimeter=0;exitX=0.995;exitY=0.63;exitDx=0;exitDy=0;exitPerimeter=0;" parent="1" source="8qg5EisyoNSNQX34VqJG-30" target="8qg5EisyoNSNQX34VqJG-9" edge="1">
          <mxGeometry width="50" height="50" relative="1" as="geometry">
            <mxPoint x="-100" y="600" as="sourcePoint" />
            <mxPoint x="-50" y="550" as="targetPoint" />
          </mxGeometry>
        </mxCell>
        <mxCell id="8qg5EisyoNSNQX34VqJG-32" value="&lt;pre style=&quot;font-size: 11px;&quot;&gt;&lt;span style=&quot;background-color: initial;&quot;&gt;&lt;font style=&quot;font-size: 11px;&quot;&gt;https://site.example.com&lt;br&gt;&lt;/font&gt;&lt;/span&gt;&lt;span style=&quot;background-color: initial;&quot;&gt;&lt;font style=&quot;font-size: 11px;&quot;&gt;https://api.example.com&lt;/font&gt;&lt;/span&gt;&lt;/pre&gt;" style="text;html=1;strokeColor=none;fillColor=none;align=left;verticalAlign=middle;whiteSpace=wrap;rounded=0;" parent="1" vertex="1">
          <mxGeometry x="-460" y="435" width="155" height="30" as="geometry" />
        </mxCell>
        <mxCell id="8qg5EisyoNSNQX34VqJG-33" value="&lt;pre style=&quot;font-size: 11px;&quot;&gt;&lt;span style=&quot;background-color: initial; font-family: Helvetica; white-space: normal;&quot;&gt;site.example.com&lt;/span&gt;&lt;br&gt;&lt;/pre&gt;" style="text;html=1;strokeColor=none;fillColor=none;align=left;verticalAlign=middle;whiteSpace=wrap;rounded=0;" parent="1" vertex="1">
          <mxGeometry x="-5" y="482" width="98.5" height="30" as="geometry" />
        </mxCell>
        <mxCell id="8qg5EisyoNSNQX34VqJG-34" value="&lt;pre style=&quot;font-size: 11px;&quot;&gt;&lt;span style=&quot;background-color: initial;&quot;&gt;&lt;font style=&quot;font-size: 11px;&quot;&gt;api.example.com&lt;/font&gt;&lt;/span&gt;&lt;/pre&gt;" style="text;html=1;strokeColor=none;fillColor=none;align=left;verticalAlign=middle;whiteSpace=wrap;rounded=0;" parent="1" vertex="1">
          <mxGeometry x="226" y="481" width="155" height="30" as="geometry" />
        </mxCell>
        <mxCell id="8qg5EisyoNSNQX34VqJG-35" value="Controller" style="aspect=fixed;sketch=0;html=1;dashed=0;whitespace=wrap;fillColor=#e6d0de;strokeColor=#996185;points=[[0.005,0.63,0],[0.1,0.2,0],[0.9,0.2,0],[0.5,0,0],[0.995,0.63,0],[0.72,0.99,0],[0.5,1,0],[0.28,0.99,0]];shape=mxgraph.kubernetes.icon2;prIcon=pod;gradientColor=#d5739d;verticalAlign=bottom;spacingBottom=-15;" parent="1" vertex="1">
          <mxGeometry x="146" y="280" width="50" height="48" as="geometry" />
        </mxCell>
        <mxCell id="8qg5EisyoNSNQX34VqJG-38" value="Issuer" style="aspect=fixed;sketch=0;html=1;dashed=0;whitespace=wrap;fillColor=#e6d0de;strokeColor=#996185;points=[[0.005,0.63,0],[0.1,0.2,0],[0.9,0.2,0],[0.5,0,0],[0.995,0.63,0],[0.72,0.99,0],[0.5,1,0],[0.28,0.99,0]];shape=mxgraph.kubernetes.icon2;kubernetesLabel=1;prIcon=crd;verticalAlign=bottom;gradientColor=#d5739d;spacingBottom=-15;" parent="1" vertex="1">
          <mxGeometry x="46" y="290" width="50" height="48" as="geometry" />
        </mxCell>
        <mxCell id="8qg5EisyoNSNQX34VqJG-39" value="" style="endArrow=classic;html=1;rounded=0;exitX=0.005;exitY=0.63;exitDx=0;exitDy=0;exitPerimeter=0;entryX=0.995;entryY=0.63;entryDx=0;entryDy=0;entryPerimeter=0;dashed=1;" parent="1" source="8qg5EisyoNSNQX34VqJG-35" target="8qg5EisyoNSNQX34VqJG-38" edge="1">
          <mxGeometry width="50" height="50" relative="1" as="geometry">
            <mxPoint x="150" y="370" as="sourcePoint" />
            <mxPoint x="101" y="444" as="targetPoint" />
          </mxGeometry>
        </mxCell>
        <mxCell id="8qg5EisyoNSNQX34VqJG-40" value="Acmesolver" style="aspect=fixed;sketch=0;html=1;dashed=0;whitespace=wrap;fillColor=#e6d0de;strokeColor=#996185;points=[[0.005,0.63,0],[0.1,0.2,0],[0.9,0.2,0],[0.5,0,0],[0.995,0.63,0],[0.72,0.99,0],[0.5,1,0],[0.28,0.99,0]];shape=mxgraph.kubernetes.icon2;prIcon=pod;gradientColor=#d5739d;verticalAlign=bottom;spacingBottom=-15;" parent="1" vertex="1">
          <mxGeometry x="260" y="365" width="50" height="48" as="geometry" />
        </mxCell>
        <mxCell id="8qg5EisyoNSNQX34VqJG-42" value="Let&#39;s encrypt&lt;br&gt;server" style="sketch=0;points=[[0,0,0],[0.25,0,0],[0.5,0,0],[0.75,0,0],[1,0,0],[0,1,0],[0.25,1,0],[0.5,1,0],[0.75,1,0],[1,1,0],[0,0.25,0],[0,0.5,0],[0,0.75,0],[1,0.25,0],[1,0.5,0],[1,0.75,0]];outlineConnect=0;fontColor=#232F3E;fillColor=#DD344C;strokeColor=#ffffff;dashed=0;verticalLabelPosition=bottom;verticalAlign=top;align=center;html=1;fontSize=12;fontStyle=0;aspect=fixed;shape=mxgraph.aws4.resourceIcon;resIcon=mxgraph.aws4.certificate_manager_3;" parent="1" vertex="1">
          <mxGeometry x="450" y="377" width="36" height="36" as="geometry" />
        </mxCell>
        <mxCell id="iwj-eY6iDWUJNgCQqZya-3" value="" style="endArrow=classic;html=1;rounded=0;exitX=0.995;exitY=0.63;exitDx=0;exitDy=0;exitPerimeter=0;" parent="1" source="8qg5EisyoNSNQX34VqJG-40" target="8qg5EisyoNSNQX34VqJG-42" edge="1">
          <mxGeometry width="50" height="50" relative="1" as="geometry">
            <mxPoint x="306" y="325" as="sourcePoint" />
            <mxPoint x="470" y="325" as="targetPoint" />
          </mxGeometry>
        </mxCell>
        <mxCell id="iwj-eY6iDWUJNgCQqZya-2" value="" style="ellipse;shape=cloud;whiteSpace=wrap;html=1;fillColor=#f5f5f5;strokeColor=#666666;gradientColor=#b3b3b3;" parent="1" vertex="1">
          <mxGeometry x="350" y="373.5" width="60" height="43" as="geometry" />
        </mxCell>
        <mxCell id="iwj-eY6iDWUJNgCQqZya-6" value="" style="endArrow=classic;html=1;rounded=0;exitX=1;exitY=0.5;exitDx=0;exitDy=0;exitPerimeter=0;entryX=0.465;entryY=0.104;entryDx=0;entryDy=0;entryPerimeter=0;edgeStyle=orthogonalEdgeStyle;" parent="1" source="8qg5EisyoNSNQX34VqJG-42" target="8qg5EisyoNSNQX34VqJG-5" edge="1">
          <mxGeometry width="50" height="50" relative="1" as="geometry">
            <mxPoint x="90" y="470" as="sourcePoint" />
            <mxPoint x="140" y="420" as="targetPoint" />
            <Array as="points">
              <mxPoint x="500" y="395" />
              <mxPoint x="500" y="240" />
              <mxPoint x="-334" y="240" />
            </Array>
          </mxGeometry>
        </mxCell>
        <mxCell id="iwj-eY6iDWUJNgCQqZya-7" value="HTTP&lt;br&gt;challenge&lt;br&gt;communication" style="edgeLabel;html=1;align=center;verticalAlign=middle;resizable=0;points=[];" parent="iwj-eY6iDWUJNgCQqZya-6" vertex="1" connectable="0">
          <mxGeometry x="0.3684" y="-3" relative="1" as="geometry">
            <mxPoint x="522" y="23" as="offset" />
          </mxGeometry>
        </mxCell>
        <mxCell id="mEYxOSvXA5p_E2krjhgp-1" value="" style="aspect=fixed;sketch=0;html=1;dashed=0;whitespace=wrap;fillColor=#e6d0de;strokeColor=#996185;points=[[0.005,0.63,0],[0.1,0.2,0],[0.9,0.2,0],[0.5,0,0],[0.995,0.63,0],[0.72,0.99,0],[0.5,1,0],[0.28,0.99,0]];shape=mxgraph.kubernetes.icon2;kubernetesLabel=1;prIcon=ing;verticalAlign=bottom;gradientColor=#d5739d;spacingBottom=-15;" parent="1" vertex="1">
          <mxGeometry x="112" y="365" width="50" height="48" as="geometry" />
        </mxCell>
        <mxCell id="tZ_jQqo7MJdqkAEeX1V4-1" value="" style="endArrow=classic;html=1;rounded=0;exitX=0.995;exitY=0.63;exitDx=0;exitDy=0;exitPerimeter=0;entryX=0.005;entryY=0.63;entryDx=0;entryDy=0;entryPerimeter=0;" parent="1" source="8qg5EisyoNSNQX34VqJG-9" target="mEYxOSvXA5p_E2krjhgp-1" edge="1">
          <mxGeometry width="50" height="50" relative="1" as="geometry">
            <mxPoint x="-150" y="470" as="sourcePoint" />
            <mxPoint x="-100" y="420" as="targetPoint" />
          </mxGeometry>
        </mxCell>
        <mxCell id="tZ_jQqo7MJdqkAEeX1V4-2" value="" style="aspect=fixed;sketch=0;html=1;dashed=0;whitespace=wrap;fillColor=#e6d0de;strokeColor=#996185;points=[[0.005,0.63,0],[0.1,0.2,0],[0.9,0.2,0],[0.5,0,0],[0.995,0.63,0],[0.72,0.99,0],[0.5,1,0],[0.28,0.99,0]];shape=mxgraph.kubernetes.icon2;kubernetesLabel=1;prIcon=svc;verticalAlign=bottom;gradientColor=#d5739d;spacingBottom=-15;" parent="1" vertex="1">
          <mxGeometry x="186" y="365" width="50" height="48" as="geometry" />
        </mxCell>
        <mxCell id="tZ_jQqo7MJdqkAEeX1V4-5" value="" style="endArrow=classic;html=1;rounded=0;entryX=0.005;entryY=0.63;entryDx=0;entryDy=0;entryPerimeter=0;exitX=0.995;exitY=0.63;exitDx=0;exitDy=0;exitPerimeter=0;" parent="1" source="mEYxOSvXA5p_E2krjhgp-1" target="tZ_jQqo7MJdqkAEeX1V4-2" edge="1">
          <mxGeometry width="50" height="50" relative="1" as="geometry">
            <mxPoint x="-150" y="470" as="sourcePoint" />
            <mxPoint x="-100" y="420" as="targetPoint" />
          </mxGeometry>
        </mxCell>
        <mxCell id="tZ_jQqo7MJdqkAEeX1V4-6" value="" style="endArrow=classic;html=1;rounded=0;entryX=0.005;entryY=0.63;entryDx=0;entryDy=0;entryPerimeter=0;exitX=0.995;exitY=0.63;exitDx=0;exitDy=0;exitPerimeter=0;" parent="1" source="tZ_jQqo7MJdqkAEeX1V4-2" target="8qg5EisyoNSNQX34VqJG-40" edge="1">
          <mxGeometry width="50" height="50" relative="1" as="geometry">
            <mxPoint x="230" y="400" as="sourcePoint" />
            <mxPoint x="196" y="411" as="targetPoint" />
          </mxGeometry>
        </mxCell>
        <mxCell id="GbkfaLLLhaC3yOSEger6-2" value="" style="endArrow=classic;html=1;rounded=0;exitX=0.995;exitY=0.63;exitDx=0;exitDy=0;exitPerimeter=0;entryX=0.717;entryY=-0.025;entryDx=0;entryDy=0;entryPerimeter=0;dashed=1;" parent="1" source="8qg5EisyoNSNQX34VqJG-35" target="GbkfaLLLhaC3yOSEger6-1" edge="1">
          <mxGeometry width="50" height="50" relative="1" as="geometry">
            <mxPoint x="170" y="320" as="sourcePoint" />
            <mxPoint x="115" y="352" as="targetPoint" />
          </mxGeometry>
        </mxCell>
        <mxCell id="GbkfaLLLhaC3yOSEger6-3" value="run" style="edgeLabel;html=1;align=center;verticalAlign=middle;resizable=0;points=[];" parent="GbkfaLLLhaC3yOSEger6-2" vertex="1" connectable="0">
          <mxGeometry x="0.1981" y="-3" relative="1" as="geometry">
            <mxPoint as="offset" />
          </mxGeometry>
        </mxCell>
        <mxCell id="l9KZHHkMkWeEIblPfTHg-1" value="" style="endArrow=open;html=1;rounded=0;entryX=0.995;entryY=0.63;entryDx=0;entryDy=0;entryPerimeter=0;exitX=0.5;exitY=0;exitDx=0;exitDy=0;exitPerimeter=0;edgeStyle=orthogonalEdgeStyle;dashed=1;strokeColor=#4D4D4D;endFill=0;" parent="1" edge="1">
          <mxGeometry width="50" height="50" relative="1" as="geometry">
            <mxPoint x="71" y="424" as="sourcePoint" />
            <mxPoint x="96" y="454" as="targetPoint" />
            <Array as="points">
              <mxPoint x="70" y="454" />
            </Array>
          </mxGeometry>
        </mxCell>
        <mxCell id="l9KZHHkMkWeEIblPfTHg-2" value="" style="endArrow=open;html=1;rounded=0;entryX=0.995;entryY=0.63;entryDx=0;entryDy=0;entryPerimeter=0;exitX=0.005;exitY=0.63;exitDx=0;exitDy=0;exitPerimeter=0;edgeStyle=orthogonalEdgeStyle;dashed=1;strokeColor=#4D4D4D;endFill=0;" parent="1" source="mEYxOSvXA5p_E2krjhgp-1" edge="1">
          <mxGeometry width="50" height="50" relative="1" as="geometry">
            <mxPoint x="137" y="366" as="sourcePoint" />
            <mxPoint x="162" y="396" as="targetPoint" />
            <Array as="points">
              <mxPoint x="137" y="395" />
            </Array>
          </mxGeometry>
        </mxCell>
      </root>
    </mxGraphModel>
  </diagram>
  <diagram id="nwUUrpXgjqTHTZ6hcwLB" name="archi-overview">
    <mxGraphModel dx="2045" dy="715" grid="1" gridSize="10" guides="1" tooltips="1" connect="1" arrows="1" fold="1" page="1" pageScale="1" pageWidth="850" pageHeight="1100" math="0" shadow="0">
      <root>
        <mxCell id="0" />
        <mxCell id="1" parent="0" />
        <mxCell id="joO6kkvS95CLnj_OHjpO-1" value="" style="rounded=0;whiteSpace=wrap;html=1;fillColor=none;strokeColor=none;" vertex="1" parent="1">
          <mxGeometry x="-670" y="295" width="1070" height="390" as="geometry" />
        </mxCell>
        <mxCell id="1IDQ9_ABlkZBt94_kn1E-1" value="" style="rounded=1;whiteSpace=wrap;html=1;fillColor=#ffe6cc;strokeColor=#d79b00;arcSize=4;" vertex="1" parent="1">
          <mxGeometry x="-200" y="310" width="540" height="360" as="geometry" />
        </mxCell>
        <mxCell id="1IDQ9_ABlkZBt94_kn1E-2" value="&lt;b&gt;Kubernetes cluster&lt;/b&gt;" style="rounded=1;whiteSpace=wrap;html=1;fillColor=#ffcd28;gradientColor=#ffa500;strokeColor=#d79b00;" vertex="1" parent="1">
          <mxGeometry x="-200" y="310" width="540" height="20" as="geometry" />
        </mxCell>
        <mxCell id="4SHSr3XiCsvyBoLThyqc-22" value="" style="rounded=0;whiteSpace=wrap;html=1;fillColor=#f5f5f5;strokeColor=#4C0099;verticalAlign=top;align=left;fontColor=#333333;dashed=1;strokeWidth=2;dashPattern=1 1;" vertex="1" parent="1">
          <mxGeometry x="-150" y="500" width="104" height="150" as="geometry" />
        </mxCell>
        <mxCell id="4SHSr3XiCsvyBoLThyqc-21" value="" style="rounded=0;whiteSpace=wrap;html=1;fillColor=#f5f5f5;strokeColor=#4C0099;verticalAlign=top;align=left;fontColor=#333333;dashed=1;strokeWidth=2;dashPattern=1 1;" vertex="1" parent="1">
          <mxGeometry x="30" y="469" width="240" height="191" as="geometry" />
        </mxCell>
        <mxCell id="4SHSr3XiCsvyBoLThyqc-2" value="Control plane" style="rounded=0;whiteSpace=wrap;html=1;fillColor=#fff2cc;strokeColor=#d6b656;verticalAlign=top;align=left;" vertex="1" parent="1">
          <mxGeometry x="-180" y="340" width="500" height="110" as="geometry" />
        </mxCell>
        <mxCell id="j6pLo53BN7QBH-9g7URD-3" value="&lt;b&gt;Dev / CI / CD / Bastion node&lt;/b&gt;" style="rounded=1;whiteSpace=wrap;html=1;verticalAlign=top;align=left;arcSize=8;spacingLeft=7;" vertex="1" parent="1">
          <mxGeometry x="-600" y="350" width="240" height="140" as="geometry" />
        </mxCell>
        <mxCell id="j6pLo53BN7QBH-9g7URD-9" value="kubectl" style="rounded=1;whiteSpace=wrap;html=1;fillColor=#e6d0de;gradientColor=#d5739d;strokeColor=#996185;" vertex="1" parent="1">
          <mxGeometry x="-530" y="380" width="70" height="40" as="geometry" />
        </mxCell>
        <mxCell id="1IDQ9_ABlkZBt94_kn1E-4" value="Ingress&lt;br&gt;Controller" style="aspect=fixed;sketch=0;html=1;dashed=0;whitespace=wrap;fillColor=#ffcd28;strokeColor=#d79b00;points=[[0.005,0.63,0],[0.1,0.2,0],[0.9,0.2,0],[0.5,0,0],[0.995,0.63,0],[0.72,0.99,0],[0.5,1,0],[0.28,0.99,0]];shape=mxgraph.kubernetes.icon2;prIcon=pod;gradientColor=#ffa500;verticalAlign=bottom;spacingBottom=-12;" vertex="1" parent="1">
          <mxGeometry y="402" width="40.63" height="39" as="geometry" />
        </mxCell>
        <mxCell id="1IDQ9_ABlkZBt94_kn1E-5" value="" style="aspect=fixed;sketch=0;html=1;dashed=0;whitespace=wrap;fillColor=#dae8fc;strokeColor=#6c8ebf;points=[[0.005,0.63,0],[0.1,0.2,0],[0.9,0.2,0],[0.5,0,0],[0.995,0.63,0],[0.72,0.99,0],[0.5,1,0],[0.28,0.99,0]];shape=mxgraph.kubernetes.icon2;prIcon=pod;gradientColor=#7ea6e0;verticalAlign=bottom;spacingBottom=-15;" vertex="1" parent="1">
          <mxGeometry x="86" y="580" width="50" height="48" as="geometry" />
        </mxCell>
        <mxCell id="1IDQ9_ABlkZBt94_kn1E-6" value="" style="aspect=fixed;sketch=0;html=1;dashed=0;whitespace=wrap;fillColor=#dae8fc;strokeColor=#6c8ebf;points=[[0.005,0.63,0],[0.1,0.2,0],[0.9,0.2,0],[0.5,0,0],[0.995,0.63,0],[0.72,0.99,0],[0.5,1,0],[0.28,0.99,0]];shape=mxgraph.kubernetes.icon2;kubernetesLabel=1;prIcon=ing;verticalAlign=bottom;gradientColor=#7ea6e0;spacingBottom=-15;" vertex="1" parent="1">
          <mxGeometry x="46" y="469" width="50" height="48" as="geometry" />
        </mxCell>
        <mxCell id="1IDQ9_ABlkZBt94_kn1E-7" value="" style="aspect=fixed;sketch=0;html=1;dashed=0;whitespace=wrap;fillColor=#dae8fc;strokeColor=#6c8ebf;points=[[0.005,0.63,0],[0.1,0.2,0],[0.9,0.2,0],[0.5,0,0],[0.995,0.63,0],[0.72,0.99,0],[0.5,1,0],[0.28,0.99,0]];shape=mxgraph.kubernetes.icon2;kubernetesLabel=1;prIcon=svc;verticalAlign=bottom;gradientColor=#7ea6e0;spacingBottom=-15;" vertex="1" parent="1">
          <mxGeometry x="86" y="517" width="50" height="48" as="geometry" />
        </mxCell>
        <mxCell id="1IDQ9_ABlkZBt94_kn1E-9" value="" style="aspect=fixed;sketch=0;html=1;dashed=0;whitespace=wrap;fillColor=#dae8fc;strokeColor=#6c8ebf;points=[[0.005,0.63,0],[0.1,0.2,0],[0.9,0.2,0],[0.5,0,0],[0.995,0.63,0],[0.72,0.99,0],[0.5,1,0],[0.28,0.99,0]];shape=mxgraph.kubernetes.icon2;kubernetesLabel=1;prIcon=svc;verticalAlign=bottom;gradientColor=#7ea6e0;spacingBottom=-15;" vertex="1" parent="1">
          <mxGeometry x="176" y="517" width="50" height="48" as="geometry" />
        </mxCell>
        <mxCell id="1IDQ9_ABlkZBt94_kn1E-10" value="application&lt;br&gt;pods" style="aspect=fixed;sketch=0;html=1;dashed=0;whitespace=wrap;fillColor=#dae8fc;strokeColor=#6c8ebf;points=[[0.005,0.63,0],[0.1,0.2,0],[0.9,0.2,0],[0.5,0,0],[0.995,0.63,0],[0.72,0.99,0],[0.5,1,0],[0.28,0.99,0]];shape=mxgraph.kubernetes.icon2;prIcon=pod;gradientColor=#7ea6e0;verticalAlign=bottom;spacingBottom=-15;" vertex="1" parent="1">
          <mxGeometry x="96" y="590" width="50" height="48" as="geometry" />
        </mxCell>
        <mxCell id="1IDQ9_ABlkZBt94_kn1E-11" value="" style="aspect=fixed;sketch=0;html=1;dashed=0;whitespace=wrap;fillColor=#dae8fc;strokeColor=#6c8ebf;points=[[0.005,0.63,0],[0.1,0.2,0],[0.9,0.2,0],[0.5,0,0],[0.995,0.63,0],[0.72,0.99,0],[0.5,1,0],[0.28,0.99,0]];shape=mxgraph.kubernetes.icon2;prIcon=pod;gradientColor=#7ea6e0;verticalAlign=bottom;spacingBottom=-15;" vertex="1" parent="1">
          <mxGeometry x="176" y="580" width="50" height="48" as="geometry" />
        </mxCell>
        <mxCell id="1IDQ9_ABlkZBt94_kn1E-12" value="application&lt;br&gt;pods" style="aspect=fixed;sketch=0;html=1;dashed=0;whitespace=wrap;fillColor=#dae8fc;strokeColor=#6c8ebf;points=[[0.005,0.63,0],[0.1,0.2,0],[0.9,0.2,0],[0.5,0,0],[0.995,0.63,0],[0.72,0.99,0],[0.5,1,0],[0.28,0.99,0]];shape=mxgraph.kubernetes.icon2;prIcon=pod;gradientColor=#7ea6e0;verticalAlign=bottom;spacingBottom=-15;" vertex="1" parent="1">
          <mxGeometry x="186" y="590" width="50" height="48" as="geometry" />
        </mxCell>
        <mxCell id="1IDQ9_ABlkZBt94_kn1E-13" value="" style="endArrow=classic;html=1;rounded=0;entryX=0.5;entryY=0;entryDx=0;entryDy=0;entryPerimeter=0;exitX=0.995;exitY=0.63;exitDx=0;exitDy=0;exitPerimeter=0;edgeStyle=orthogonalEdgeStyle;" edge="1" parent="1" source="1IDQ9_ABlkZBt94_kn1E-4" target="1IDQ9_ABlkZBt94_kn1E-6">
          <mxGeometry width="50" height="50" relative="1" as="geometry">
            <mxPoint x="-124" y="530" as="sourcePoint" />
            <mxPoint x="-74" y="480" as="targetPoint" />
          </mxGeometry>
        </mxCell>
        <mxCell id="1IDQ9_ABlkZBt94_kn1E-15" value="" style="endArrow=classic;html=1;rounded=0;entryX=0.5;entryY=0;entryDx=0;entryDy=0;entryPerimeter=0;exitX=0.995;exitY=0.63;exitDx=0;exitDy=0;exitPerimeter=0;edgeStyle=orthogonalEdgeStyle;" edge="1" parent="1" source="1IDQ9_ABlkZBt94_kn1E-6" target="1IDQ9_ABlkZBt94_kn1E-7">
          <mxGeometry width="50" height="50" relative="1" as="geometry">
            <mxPoint x="-224" y="630" as="sourcePoint" />
            <mxPoint x="-174" y="580" as="targetPoint" />
          </mxGeometry>
        </mxCell>
        <mxCell id="1IDQ9_ABlkZBt94_kn1E-16" value="" style="endArrow=classic;html=1;rounded=0;entryX=0.5;entryY=0;entryDx=0;entryDy=0;entryPerimeter=0;exitX=0.995;exitY=0.63;exitDx=0;exitDy=0;exitPerimeter=0;edgeStyle=orthogonalEdgeStyle;" edge="1" parent="1" source="1IDQ9_ABlkZBt94_kn1E-6" target="1IDQ9_ABlkZBt94_kn1E-9">
          <mxGeometry width="50" height="50" relative="1" as="geometry">
            <mxPoint x="106" y="509" as="sourcePoint" />
            <mxPoint x="121" y="527" as="targetPoint" />
          </mxGeometry>
        </mxCell>
        <mxCell id="1IDQ9_ABlkZBt94_kn1E-17" value="" style="endArrow=classic;html=1;rounded=0;exitX=0.5;exitY=1;exitDx=0;exitDy=0;exitPerimeter=0;" edge="1" parent="1" source="1IDQ9_ABlkZBt94_kn1E-7" target="1IDQ9_ABlkZBt94_kn1E-5">
          <mxGeometry width="50" height="50" relative="1" as="geometry">
            <mxPoint x="36" y="560" as="sourcePoint" />
            <mxPoint x="86" y="510" as="targetPoint" />
          </mxGeometry>
        </mxCell>
        <mxCell id="1IDQ9_ABlkZBt94_kn1E-18" value="" style="endArrow=classic;html=1;rounded=0;exitX=0.5;exitY=1;exitDx=0;exitDy=0;exitPerimeter=0;entryX=0.5;entryY=0;entryDx=0;entryDy=0;entryPerimeter=0;" edge="1" parent="1" source="1IDQ9_ABlkZBt94_kn1E-7" target="1IDQ9_ABlkZBt94_kn1E-10">
          <mxGeometry width="50" height="50" relative="1" as="geometry">
            <mxPoint x="46" y="570" as="sourcePoint" />
            <mxPoint x="96" y="520" as="targetPoint" />
          </mxGeometry>
        </mxCell>
        <mxCell id="1IDQ9_ABlkZBt94_kn1E-19" value="" style="endArrow=classic;html=1;rounded=0;exitX=0.5;exitY=1;exitDx=0;exitDy=0;exitPerimeter=0;entryX=0.5;entryY=0;entryDx=0;entryDy=0;entryPerimeter=0;" edge="1" parent="1" source="1IDQ9_ABlkZBt94_kn1E-9" target="1IDQ9_ABlkZBt94_kn1E-11">
          <mxGeometry width="50" height="50" relative="1" as="geometry">
            <mxPoint x="56" y="580" as="sourcePoint" />
            <mxPoint x="106" y="530" as="targetPoint" />
          </mxGeometry>
        </mxCell>
        <mxCell id="1IDQ9_ABlkZBt94_kn1E-20" value="" style="endArrow=classic;html=1;rounded=0;entryX=0.5;entryY=0;entryDx=0;entryDy=0;entryPerimeter=0;exitX=0.5;exitY=1;exitDx=0;exitDy=0;exitPerimeter=0;" edge="1" parent="1" source="1IDQ9_ABlkZBt94_kn1E-9" target="1IDQ9_ABlkZBt94_kn1E-12">
          <mxGeometry width="50" height="50" relative="1" as="geometry">
            <mxPoint x="66" y="590" as="sourcePoint" />
            <mxPoint x="116" y="540" as="targetPoint" />
          </mxGeometry>
        </mxCell>
        <mxCell id="1IDQ9_ABlkZBt94_kn1E-23" value="" style="endArrow=open;html=1;rounded=0;entryX=0.995;entryY=0.63;entryDx=0;entryDy=0;entryPerimeter=0;exitX=0.5;exitY=0;exitDx=0;exitDy=0;exitPerimeter=0;edgeStyle=orthogonalEdgeStyle;dashed=1;strokeColor=#4D4D4D;endFill=0;" edge="1" parent="1" source="1IDQ9_ABlkZBt94_kn1E-6" target="1IDQ9_ABlkZBt94_kn1E-6">
          <mxGeometry width="50" height="50" relative="1" as="geometry">
            <mxPoint x="-90" y="525" as="sourcePoint" />
            <mxPoint x="-40" y="475" as="targetPoint" />
            <Array as="points">
              <mxPoint x="70" y="499" />
            </Array>
          </mxGeometry>
        </mxCell>
        <mxCell id="4SHSr3XiCsvyBoLThyqc-3" value="api-server" style="rounded=1;whiteSpace=wrap;html=1;fillColor=#ffcd28;gradientColor=#ffa500;strokeColor=#d79b00;" vertex="1" parent="1">
          <mxGeometry x="-150" y="370" width="70" height="30" as="geometry" />
        </mxCell>
        <mxCell id="4SHSr3XiCsvyBoLThyqc-5" value="kube-proxy" style="rounded=1;whiteSpace=wrap;html=1;fillColor=#ffcd28;gradientColor=#ffa500;strokeColor=#d79b00;" vertex="1" parent="1">
          <mxGeometry x="116" y="372" width="70" height="30" as="geometry" />
        </mxCell>
        <mxCell id="4SHSr3XiCsvyBoLThyqc-6" value="kubelet" style="rounded=1;whiteSpace=wrap;html=1;fillColor=#ffcd28;gradientColor=#ffa500;strokeColor=#d79b00;" vertex="1" parent="1">
          <mxGeometry x="210" y="372" width="70" height="30" as="geometry" />
        </mxCell>
        <mxCell id="4SHSr3XiCsvyBoLThyqc-7" value="controller manager" style="rounded=1;whiteSpace=wrap;html=1;fillColor=#ffcd28;gradientColor=#ffa500;strokeColor=#d79b00;" vertex="1" parent="1">
          <mxGeometry x="-60" y="372" width="70" height="30" as="geometry" />
        </mxCell>
        <mxCell id="4SHSr3XiCsvyBoLThyqc-8" value="scheduler" style="rounded=1;whiteSpace=wrap;html=1;fillColor=#ffcd28;gradientColor=#ffa500;strokeColor=#d79b00;" vertex="1" parent="1">
          <mxGeometry x="26" y="372" width="70" height="30" as="geometry" />
        </mxCell>
        <mxCell id="4SHSr3XiCsvyBoLThyqc-10" value="" style="aspect=fixed;sketch=0;html=1;dashed=0;whitespace=wrap;fillColor=#dae8fc;strokeColor=#6c8ebf;points=[[0.005,0.63,0],[0.1,0.2,0],[0.9,0.2,0],[0.5,0,0],[0.995,0.63,0],[0.72,0.99,0],[0.5,1,0],[0.28,0.99,0]];shape=mxgraph.kubernetes.icon2;kubernetesLabel=1;prIcon=svc;verticalAlign=bottom;gradientColor=#7ea6e0;spacingBottom=-15;" vertex="1" parent="1">
          <mxGeometry x="-126" y="507" width="50" height="48" as="geometry" />
        </mxCell>
        <mxCell id="4SHSr3XiCsvyBoLThyqc-11" value="" style="aspect=fixed;sketch=0;html=1;dashed=0;whitespace=wrap;fillColor=#dae8fc;strokeColor=#6c8ebf;points=[[0.005,0.63,0],[0.1,0.2,0],[0.9,0.2,0],[0.5,0,0],[0.995,0.63,0],[0.72,0.99,0],[0.5,1,0],[0.28,0.99,0]];shape=mxgraph.kubernetes.icon2;prIcon=pod;gradientColor=#7ea6e0;verticalAlign=bottom;spacingBottom=-15;" vertex="1" parent="1">
          <mxGeometry x="-126" y="570" width="50" height="48" as="geometry" />
        </mxCell>
        <mxCell id="4SHSr3XiCsvyBoLThyqc-12" value="application&lt;br&gt;pods" style="aspect=fixed;sketch=0;html=1;dashed=0;whitespace=wrap;fillColor=#dae8fc;strokeColor=#6c8ebf;points=[[0.005,0.63,0],[0.1,0.2,0],[0.9,0.2,0],[0.5,0,0],[0.995,0.63,0],[0.72,0.99,0],[0.5,1,0],[0.28,0.99,0]];shape=mxgraph.kubernetes.icon2;prIcon=pod;gradientColor=#7ea6e0;verticalAlign=bottom;spacingBottom=-15;" vertex="1" parent="1">
          <mxGeometry x="-116" y="580" width="50" height="48" as="geometry" />
        </mxCell>
        <mxCell id="4SHSr3XiCsvyBoLThyqc-13" value="" style="endArrow=classic;html=1;rounded=0;exitX=0.5;exitY=1;exitDx=0;exitDy=0;exitPerimeter=0;entryX=0.5;entryY=0;entryDx=0;entryDy=0;entryPerimeter=0;" edge="1" parent="1" source="4SHSr3XiCsvyBoLThyqc-10" target="4SHSr3XiCsvyBoLThyqc-11">
          <mxGeometry width="50" height="50" relative="1" as="geometry">
            <mxPoint x="-246" y="570" as="sourcePoint" />
            <mxPoint x="-196" y="520" as="targetPoint" />
          </mxGeometry>
        </mxCell>
        <mxCell id="4SHSr3XiCsvyBoLThyqc-14" value="" style="endArrow=classic;html=1;rounded=0;entryX=0.5;entryY=0;entryDx=0;entryDy=0;entryPerimeter=0;exitX=0.5;exitY=1;exitDx=0;exitDy=0;exitPerimeter=0;" edge="1" parent="1" source="4SHSr3XiCsvyBoLThyqc-10" target="4SHSr3XiCsvyBoLThyqc-12">
          <mxGeometry width="50" height="50" relative="1" as="geometry">
            <mxPoint x="-236" y="580" as="sourcePoint" />
            <mxPoint x="-186" y="530" as="targetPoint" />
          </mxGeometry>
        </mxCell>
        <mxCell id="4SHSr3XiCsvyBoLThyqc-15" value="" style="endArrow=classic;html=1;rounded=1;exitX=1;exitY=0.5;exitDx=0;exitDy=0;entryX=0;entryY=0.5;entryDx=0;entryDy=0;edgeStyle=orthogonalEdgeStyle;curved=0;" edge="1" parent="1" source="j6pLo53BN7QBH-9g7URD-3" target="4SHSr3XiCsvyBoLThyqc-3">
          <mxGeometry width="50" height="50" relative="1" as="geometry">
            <mxPoint x="10" y="470" as="sourcePoint" />
            <mxPoint x="60" y="420" as="targetPoint" />
          </mxGeometry>
        </mxCell>
        <mxCell id="4SHSr3XiCsvyBoLThyqc-16" value="helm" style="rounded=1;whiteSpace=wrap;html=1;fillColor=#e6d0de;gradientColor=#d5739d;strokeColor=#996185;" vertex="1" parent="1">
          <mxGeometry x="-530" y="430" width="70" height="40" as="geometry" />
        </mxCell>
        <mxCell id="4SHSr3XiCsvyBoLThyqc-17" value="registry" style="aspect=fixed;sketch=0;html=1;dashed=0;whitespace=wrap;fillColor=#e6d0de;strokeColor=#996185;points=[[0.005,0.63,0],[0.1,0.2,0],[0.9,0.2,0],[0.5,0,0],[0.995,0.63,0],[0.72,0.99,0],[0.5,1,0],[0.28,0.99,0]];shape=mxgraph.kubernetes.icon2;prIcon=pod;verticalAlign=bottom;spacingBottom=-15;gradientColor=#d5739d;" vertex="1" parent="1">
          <mxGeometry x="-340" y="536" width="50" height="48" as="geometry" />
        </mxCell>
        <mxCell id="4SHSr3XiCsvyBoLThyqc-19" value="" style="endArrow=classic;html=1;rounded=1;exitX=1;exitY=0.5;exitDx=0;exitDy=0;entryX=0.005;entryY=0.63;entryDx=0;entryDy=0;entryPerimeter=0;edgeStyle=orthogonalEdgeStyle;curved=0;" edge="1" parent="1" source="4SHSr3XiCsvyBoLThyqc-16" target="4SHSr3XiCsvyBoLThyqc-17">
          <mxGeometry width="50" height="50" relative="1" as="geometry">
            <mxPoint x="10" y="470" as="sourcePoint" />
            <mxPoint x="60" y="420" as="targetPoint" />
            <Array as="points">
              <mxPoint x="-440" y="450" />
              <mxPoint x="-440" y="566" />
            </Array>
          </mxGeometry>
        </mxCell>
        <mxCell id="4SHSr3XiCsvyBoLThyqc-18" value="" style="ellipse;shape=cloud;whiteSpace=wrap;html=1;fillColor=#f5f5f5;strokeColor=#666666;gradientColor=#b3b3b3;" vertex="1" parent="1">
          <mxGeometry x="-485" y="530" width="105" height="60" as="geometry" />
        </mxCell>
        <mxCell id="4SHSr3XiCsvyBoLThyqc-20" value="deploy&lt;br&gt;resources" style="endArrow=classic;html=1;rounded=0;exitX=0.25;exitY=1;exitDx=0;exitDy=0;dashed=1;entryX=0.5;entryY=0;entryDx=0;entryDy=0;labelBackgroundColor=none;strokeWidth=2;strokeColor=#4C0099;fontColor=#4C0099;fontStyle=1" edge="1" parent="1" source="4SHSr3XiCsvyBoLThyqc-2" target="4SHSr3XiCsvyBoLThyqc-22">
          <mxGeometry x="-0.4091" y="23" width="50" height="50" relative="1" as="geometry">
            <mxPoint x="-200" y="630" as="sourcePoint" />
            <mxPoint x="-10" y="760" as="targetPoint" />
            <mxPoint as="offset" />
          </mxGeometry>
        </mxCell>
        <mxCell id="4SHSr3XiCsvyBoLThyqc-24" value="" style="endArrow=classic;html=1;rounded=0;exitX=0.25;exitY=1;exitDx=0;exitDy=0;dashed=1;entryX=0;entryY=0.25;entryDx=0;entryDy=0;strokeWidth=2;strokeColor=#4C0099;" edge="1" parent="1" source="4SHSr3XiCsvyBoLThyqc-2" target="4SHSr3XiCsvyBoLThyqc-21">
          <mxGeometry width="50" height="50" relative="1" as="geometry">
            <mxPoint x="-45" y="460" as="sourcePoint" />
            <mxPoint x="-88" y="500" as="targetPoint" />
          </mxGeometry>
        </mxCell>
      </root>
    </mxGraphModel>
  </diagram>
  <diagram id="QHOAFIJQH0zdtv7_8XXX" name="helm-releases">
    <mxGraphModel dx="2895" dy="715" grid="1" gridSize="10" guides="1" tooltips="1" connect="1" arrows="1" fold="1" page="1" pageScale="1" pageWidth="850" pageHeight="1100" math="0" shadow="0">
      <root>
        <mxCell id="0" />
        <mxCell id="1" parent="0" />
        <mxCell id="7-MCktlSXugMbm-M2CyF-1" value="" style="rounded=0;whiteSpace=wrap;html=1;fillColor=none;strokeColor=none;" vertex="1" parent="1">
          <mxGeometry x="-913" y="95" width="1070" height="390" as="geometry" />
        </mxCell>
        <mxCell id="Ap1lxfuNoZFb6KsWal0I-35" value="" style="rounded=0;whiteSpace=wrap;html=1;fillColor=#f5f5f5;strokeColor=#4C0099;verticalAlign=top;align=left;fontColor=#333333;dashed=1;strokeWidth=1;dashPattern=1 1;" vertex="1" parent="1">
          <mxGeometry x="-795" y="130" width="100" height="115" as="geometry" />
        </mxCell>
        <mxCell id="Ap1lxfuNoZFb6KsWal0I-34" value="" style="rounded=0;whiteSpace=wrap;html=1;fillColor=#f5f5f5;strokeColor=#4C0099;verticalAlign=top;align=left;fontColor=#333333;dashed=1;strokeWidth=1;dashPattern=1 1;" vertex="1" parent="1">
          <mxGeometry x="-830" y="273.5" width="100" height="115" as="geometry" />
        </mxCell>
        <mxCell id="W4_b19S9Q3RcEzfWoKEn-5" value="chart" style="shape=note;whiteSpace=wrap;html=1;backgroundOutline=1;darkOpacity=0.05;fillColor=#e1d5e7;strokeColor=#9673a6;size=14;" vertex="1" parent="1">
          <mxGeometry x="-820" y="278.5" width="50" height="60" as="geometry" />
        </mxCell>
        <mxCell id="W4_b19S9Q3RcEzfWoKEn-1" value="helm" style="rounded=1;whiteSpace=wrap;html=1;fillColor=#e6d0de;gradientColor=#d5739d;strokeColor=#996185;" vertex="1" parent="1">
          <mxGeometry x="-640" y="238" width="70" height="40" as="geometry" />
        </mxCell>
        <mxCell id="W4_b19S9Q3RcEzfWoKEn-2" value="chart" style="shape=note;whiteSpace=wrap;html=1;backgroundOutline=1;darkOpacity=0.05;fillColor=#e1d5e7;strokeColor=#9673a6;size=14;" vertex="1" parent="1">
          <mxGeometry x="-785" y="140" width="50" height="60" as="geometry" />
        </mxCell>
        <mxCell id="W4_b19S9Q3RcEzfWoKEn-3" value="values" style="shape=note;whiteSpace=wrap;html=1;backgroundOutline=1;darkOpacity=0.05;fillColor=#d5e8d4;strokeColor=#82b366;size=14;" vertex="1" parent="1">
          <mxGeometry x="-750" y="180" width="50" height="60" as="geometry" />
        </mxCell>
        <mxCell id="W4_b19S9Q3RcEzfWoKEn-4" value="values" style="shape=note;whiteSpace=wrap;html=1;backgroundOutline=1;darkOpacity=0.05;fillColor=#dae8fc;strokeColor=#6c8ebf;size=14;" vertex="1" parent="1">
          <mxGeometry x="-790" y="318.5" width="50" height="60" as="geometry" />
        </mxCell>
        <mxCell id="Ap1lxfuNoZFb6KsWal0I-1" value="" style="rounded=1;whiteSpace=wrap;html=1;fillColor=#ffe6cc;strokeColor=#d79b00;arcSize=4;" vertex="1" parent="1">
          <mxGeometry x="-460" y="110" width="490" height="360" as="geometry" />
        </mxCell>
        <mxCell id="Ap1lxfuNoZFb6KsWal0I-2" value="&lt;b&gt;Kubernetes cluster&lt;/b&gt;" style="rounded=1;whiteSpace=wrap;html=1;fillColor=#ffcd28;gradientColor=#ffa500;strokeColor=#d79b00;" vertex="1" parent="1">
          <mxGeometry x="-460" y="110" width="490" height="20" as="geometry" />
        </mxCell>
        <mxCell id="Ap1lxfuNoZFb6KsWal0I-3" value="" style="rounded=0;whiteSpace=wrap;html=1;fillColor=#f5f5f5;strokeColor=#4C0099;verticalAlign=top;align=left;fontColor=#333333;dashed=1;strokeWidth=2;dashPattern=1 1;" vertex="1" parent="1">
          <mxGeometry x="-430" y="300" width="104" height="150" as="geometry" />
        </mxCell>
        <mxCell id="Ap1lxfuNoZFb6KsWal0I-4" value="" style="rounded=0;whiteSpace=wrap;html=1;fillColor=#f5f5f5;strokeColor=#4C0099;verticalAlign=top;align=left;fontColor=#333333;dashed=1;strokeWidth=2;dashPattern=1 1;" vertex="1" parent="1">
          <mxGeometry x="-250" y="269" width="240" height="191" as="geometry" />
        </mxCell>
        <mxCell id="Ap1lxfuNoZFb6KsWal0I-5" value="Control plane" style="rounded=0;whiteSpace=wrap;html=1;fillColor=#fff2cc;strokeColor=#d6b656;verticalAlign=top;align=left;" vertex="1" parent="1">
          <mxGeometry x="-440" y="140" width="450" height="80" as="geometry" />
        </mxCell>
        <mxCell id="Ap1lxfuNoZFb6KsWal0I-7" value="" style="aspect=fixed;sketch=0;html=1;dashed=0;whitespace=wrap;fillColor=#dae8fc;strokeColor=#6c8ebf;points=[[0.005,0.63,0],[0.1,0.2,0],[0.9,0.2,0],[0.5,0,0],[0.995,0.63,0],[0.72,0.99,0],[0.5,1,0],[0.28,0.99,0]];shape=mxgraph.kubernetes.icon2;prIcon=pod;gradientColor=#7ea6e0;verticalAlign=bottom;spacingBottom=-15;" vertex="1" parent="1">
          <mxGeometry x="-194" y="380" width="50" height="48" as="geometry" />
        </mxCell>
        <mxCell id="Ap1lxfuNoZFb6KsWal0I-8" value="" style="aspect=fixed;sketch=0;html=1;dashed=0;whitespace=wrap;fillColor=#dae8fc;strokeColor=#6c8ebf;points=[[0.005,0.63,0],[0.1,0.2,0],[0.9,0.2,0],[0.5,0,0],[0.995,0.63,0],[0.72,0.99,0],[0.5,1,0],[0.28,0.99,0]];shape=mxgraph.kubernetes.icon2;kubernetesLabel=1;prIcon=ing;verticalAlign=bottom;gradientColor=#7ea6e0;spacingBottom=-15;" vertex="1" parent="1">
          <mxGeometry x="-234" y="269" width="50" height="48" as="geometry" />
        </mxCell>
        <mxCell id="Ap1lxfuNoZFb6KsWal0I-9" value="" style="aspect=fixed;sketch=0;html=1;dashed=0;whitespace=wrap;fillColor=#dae8fc;strokeColor=#6c8ebf;points=[[0.005,0.63,0],[0.1,0.2,0],[0.9,0.2,0],[0.5,0,0],[0.995,0.63,0],[0.72,0.99,0],[0.5,1,0],[0.28,0.99,0]];shape=mxgraph.kubernetes.icon2;kubernetesLabel=1;prIcon=svc;verticalAlign=bottom;gradientColor=#7ea6e0;spacingBottom=-15;" vertex="1" parent="1">
          <mxGeometry x="-194" y="317" width="50" height="48" as="geometry" />
        </mxCell>
        <mxCell id="Ap1lxfuNoZFb6KsWal0I-10" value="" style="aspect=fixed;sketch=0;html=1;dashed=0;whitespace=wrap;fillColor=#dae8fc;strokeColor=#6c8ebf;points=[[0.005,0.63,0],[0.1,0.2,0],[0.9,0.2,0],[0.5,0,0],[0.995,0.63,0],[0.72,0.99,0],[0.5,1,0],[0.28,0.99,0]];shape=mxgraph.kubernetes.icon2;kubernetesLabel=1;prIcon=svc;verticalAlign=bottom;gradientColor=#7ea6e0;spacingBottom=-15;" vertex="1" parent="1">
          <mxGeometry x="-104" y="317" width="50" height="48" as="geometry" />
        </mxCell>
        <mxCell id="Ap1lxfuNoZFb6KsWal0I-11" value="application&lt;br&gt;pods" style="aspect=fixed;sketch=0;html=1;dashed=0;whitespace=wrap;fillColor=#dae8fc;strokeColor=#6c8ebf;points=[[0.005,0.63,0],[0.1,0.2,0],[0.9,0.2,0],[0.5,0,0],[0.995,0.63,0],[0.72,0.99,0],[0.5,1,0],[0.28,0.99,0]];shape=mxgraph.kubernetes.icon2;prIcon=pod;gradientColor=#7ea6e0;verticalAlign=bottom;spacingBottom=-15;" vertex="1" parent="1">
          <mxGeometry x="-184" y="390" width="50" height="48" as="geometry" />
        </mxCell>
        <mxCell id="Ap1lxfuNoZFb6KsWal0I-12" value="" style="aspect=fixed;sketch=0;html=1;dashed=0;whitespace=wrap;fillColor=#dae8fc;strokeColor=#6c8ebf;points=[[0.005,0.63,0],[0.1,0.2,0],[0.9,0.2,0],[0.5,0,0],[0.995,0.63,0],[0.72,0.99,0],[0.5,1,0],[0.28,0.99,0]];shape=mxgraph.kubernetes.icon2;prIcon=pod;gradientColor=#7ea6e0;verticalAlign=bottom;spacingBottom=-15;" vertex="1" parent="1">
          <mxGeometry x="-104" y="380" width="50" height="48" as="geometry" />
        </mxCell>
        <mxCell id="Ap1lxfuNoZFb6KsWal0I-13" value="application&lt;br&gt;pods" style="aspect=fixed;sketch=0;html=1;dashed=0;whitespace=wrap;fillColor=#dae8fc;strokeColor=#6c8ebf;points=[[0.005,0.63,0],[0.1,0.2,0],[0.9,0.2,0],[0.5,0,0],[0.995,0.63,0],[0.72,0.99,0],[0.5,1,0],[0.28,0.99,0]];shape=mxgraph.kubernetes.icon2;prIcon=pod;gradientColor=#7ea6e0;verticalAlign=bottom;spacingBottom=-15;" vertex="1" parent="1">
          <mxGeometry x="-94" y="390" width="50" height="48" as="geometry" />
        </mxCell>
        <mxCell id="Ap1lxfuNoZFb6KsWal0I-15" value="" style="endArrow=classic;html=1;rounded=0;entryX=0.5;entryY=0;entryDx=0;entryDy=0;entryPerimeter=0;exitX=0.995;exitY=0.63;exitDx=0;exitDy=0;exitPerimeter=0;edgeStyle=orthogonalEdgeStyle;" edge="1" parent="1" source="Ap1lxfuNoZFb6KsWal0I-8" target="Ap1lxfuNoZFb6KsWal0I-9">
          <mxGeometry width="50" height="50" relative="1" as="geometry">
            <mxPoint x="-504" y="430" as="sourcePoint" />
            <mxPoint x="-454" y="380" as="targetPoint" />
          </mxGeometry>
        </mxCell>
        <mxCell id="Ap1lxfuNoZFb6KsWal0I-16" value="" style="endArrow=classic;html=1;rounded=0;entryX=0.5;entryY=0;entryDx=0;entryDy=0;entryPerimeter=0;exitX=0.995;exitY=0.63;exitDx=0;exitDy=0;exitPerimeter=0;edgeStyle=orthogonalEdgeStyle;" edge="1" parent="1" source="Ap1lxfuNoZFb6KsWal0I-8" target="Ap1lxfuNoZFb6KsWal0I-10">
          <mxGeometry width="50" height="50" relative="1" as="geometry">
            <mxPoint x="-174" y="309" as="sourcePoint" />
            <mxPoint x="-159" y="327" as="targetPoint" />
          </mxGeometry>
        </mxCell>
        <mxCell id="Ap1lxfuNoZFb6KsWal0I-17" value="" style="endArrow=classic;html=1;rounded=0;exitX=0.5;exitY=1;exitDx=0;exitDy=0;exitPerimeter=0;" edge="1" parent="1" source="Ap1lxfuNoZFb6KsWal0I-9" target="Ap1lxfuNoZFb6KsWal0I-7">
          <mxGeometry width="50" height="50" relative="1" as="geometry">
            <mxPoint x="-244" y="360" as="sourcePoint" />
            <mxPoint x="-194" y="310" as="targetPoint" />
          </mxGeometry>
        </mxCell>
        <mxCell id="Ap1lxfuNoZFb6KsWal0I-18" value="" style="endArrow=classic;html=1;rounded=0;exitX=0.5;exitY=1;exitDx=0;exitDy=0;exitPerimeter=0;entryX=0.5;entryY=0;entryDx=0;entryDy=0;entryPerimeter=0;" edge="1" parent="1" source="Ap1lxfuNoZFb6KsWal0I-9" target="Ap1lxfuNoZFb6KsWal0I-11">
          <mxGeometry width="50" height="50" relative="1" as="geometry">
            <mxPoint x="-234" y="370" as="sourcePoint" />
            <mxPoint x="-184" y="320" as="targetPoint" />
          </mxGeometry>
        </mxCell>
        <mxCell id="Ap1lxfuNoZFb6KsWal0I-19" value="" style="endArrow=classic;html=1;rounded=0;exitX=0.5;exitY=1;exitDx=0;exitDy=0;exitPerimeter=0;entryX=0.5;entryY=0;entryDx=0;entryDy=0;entryPerimeter=0;" edge="1" parent="1" source="Ap1lxfuNoZFb6KsWal0I-10" target="Ap1lxfuNoZFb6KsWal0I-12">
          <mxGeometry width="50" height="50" relative="1" as="geometry">
            <mxPoint x="-224" y="380" as="sourcePoint" />
            <mxPoint x="-174" y="330" as="targetPoint" />
          </mxGeometry>
        </mxCell>
        <mxCell id="Ap1lxfuNoZFb6KsWal0I-20" value="" style="endArrow=classic;html=1;rounded=0;entryX=0.5;entryY=0;entryDx=0;entryDy=0;entryPerimeter=0;exitX=0.5;exitY=1;exitDx=0;exitDy=0;exitPerimeter=0;" edge="1" parent="1" source="Ap1lxfuNoZFb6KsWal0I-10" target="Ap1lxfuNoZFb6KsWal0I-13">
          <mxGeometry width="50" height="50" relative="1" as="geometry">
            <mxPoint x="-214" y="390" as="sourcePoint" />
            <mxPoint x="-164" y="340" as="targetPoint" />
          </mxGeometry>
        </mxCell>
        <mxCell id="Ap1lxfuNoZFb6KsWal0I-21" value="" style="endArrow=open;html=1;rounded=0;entryX=0.995;entryY=0.63;entryDx=0;entryDy=0;entryPerimeter=0;exitX=0.5;exitY=0;exitDx=0;exitDy=0;exitPerimeter=0;edgeStyle=orthogonalEdgeStyle;dashed=1;strokeColor=#4D4D4D;endFill=0;" edge="1" parent="1" source="Ap1lxfuNoZFb6KsWal0I-8" target="Ap1lxfuNoZFb6KsWal0I-8">
          <mxGeometry width="50" height="50" relative="1" as="geometry">
            <mxPoint x="-370" y="325" as="sourcePoint" />
            <mxPoint x="-320" y="275" as="targetPoint" />
            <Array as="points">
              <mxPoint x="-210" y="299" />
            </Array>
          </mxGeometry>
        </mxCell>
        <mxCell id="Ap1lxfuNoZFb6KsWal0I-22" value="api-server" style="rounded=1;whiteSpace=wrap;html=1;fillColor=#ffcd28;gradientColor=#ffa500;strokeColor=#d79b00;fontSize=12;fontColor=#000000;" vertex="1" parent="1">
          <mxGeometry x="-430" y="170" width="70" height="30" as="geometry" />
        </mxCell>
        <mxCell id="Ap1lxfuNoZFb6KsWal0I-23" value="kube-proxy" style="rounded=1;whiteSpace=wrap;html=1;fillColor=#ffcd28;gradientColor=#ffa500;strokeColor=#d79b00;fontSize=10;fontColor=#999999;" vertex="1" parent="1">
          <mxGeometry x="-164" y="172" width="70" height="30" as="geometry" />
        </mxCell>
        <mxCell id="Ap1lxfuNoZFb6KsWal0I-24" value="kubelet" style="rounded=1;whiteSpace=wrap;html=1;fillColor=#ffcd28;gradientColor=#ffa500;strokeColor=#d79b00;fontSize=10;fontColor=#999999;" vertex="1" parent="1">
          <mxGeometry x="-70" y="172" width="70" height="30" as="geometry" />
        </mxCell>
        <mxCell id="Ap1lxfuNoZFb6KsWal0I-25" value="controller manager" style="rounded=1;whiteSpace=wrap;html=1;fillColor=#ffcd28;gradientColor=#ffa500;strokeColor=#d79b00;fontSize=10;fontColor=#999999;" vertex="1" parent="1">
          <mxGeometry x="-340" y="172" width="70" height="30" as="geometry" />
        </mxCell>
        <mxCell id="Ap1lxfuNoZFb6KsWal0I-26" value="scheduler" style="rounded=1;whiteSpace=wrap;html=1;fillColor=#ffcd28;gradientColor=#ffa500;strokeColor=#d79b00;fontSize=10;fontColor=#999999;" vertex="1" parent="1">
          <mxGeometry x="-254" y="172" width="70" height="30" as="geometry" />
        </mxCell>
        <mxCell id="Ap1lxfuNoZFb6KsWal0I-27" value="" style="aspect=fixed;sketch=0;html=1;dashed=0;whitespace=wrap;fillColor=#d5e8d4;strokeColor=#82b366;points=[[0.005,0.63,0],[0.1,0.2,0],[0.9,0.2,0],[0.5,0,0],[0.995,0.63,0],[0.72,0.99,0],[0.5,1,0],[0.28,0.99,0]];shape=mxgraph.kubernetes.icon2;kubernetesLabel=1;prIcon=svc;verticalAlign=bottom;spacingBottom=-15;" vertex="1" parent="1">
          <mxGeometry x="-406" y="307" width="50" height="48" as="geometry" />
        </mxCell>
        <mxCell id="Ap1lxfuNoZFb6KsWal0I-28" value="" style="aspect=fixed;sketch=0;html=1;dashed=0;whitespace=wrap;fillColor=#d5e8d4;strokeColor=#82b366;points=[[0.005,0.63,0],[0.1,0.2,0],[0.9,0.2,0],[0.5,0,0],[0.995,0.63,0],[0.72,0.99,0],[0.5,1,0],[0.28,0.99,0]];shape=mxgraph.kubernetes.icon2;prIcon=pod;verticalAlign=bottom;spacingBottom=-15;" vertex="1" parent="1">
          <mxGeometry x="-406" y="370" width="50" height="48" as="geometry" />
        </mxCell>
        <mxCell id="Ap1lxfuNoZFb6KsWal0I-29" value="application&lt;br&gt;pods" style="aspect=fixed;sketch=0;html=1;dashed=0;whitespace=wrap;fillColor=#d5e8d4;strokeColor=#82b366;points=[[0.005,0.63,0],[0.1,0.2,0],[0.9,0.2,0],[0.5,0,0],[0.995,0.63,0],[0.72,0.99,0],[0.5,1,0],[0.28,0.99,0]];shape=mxgraph.kubernetes.icon2;prIcon=pod;verticalAlign=bottom;spacingBottom=-15;" vertex="1" parent="1">
          <mxGeometry x="-396" y="380" width="50" height="48" as="geometry" />
        </mxCell>
        <mxCell id="Ap1lxfuNoZFb6KsWal0I-30" value="" style="endArrow=classic;html=1;rounded=0;exitX=0.5;exitY=1;exitDx=0;exitDy=0;exitPerimeter=0;entryX=0.5;entryY=0;entryDx=0;entryDy=0;entryPerimeter=0;" edge="1" parent="1" source="Ap1lxfuNoZFb6KsWal0I-27" target="Ap1lxfuNoZFb6KsWal0I-28">
          <mxGeometry width="50" height="50" relative="1" as="geometry">
            <mxPoint x="-526" y="370" as="sourcePoint" />
            <mxPoint x="-476" y="320" as="targetPoint" />
          </mxGeometry>
        </mxCell>
        <mxCell id="Ap1lxfuNoZFb6KsWal0I-31" value="" style="endArrow=classic;html=1;rounded=0;entryX=0.5;entryY=0;entryDx=0;entryDy=0;entryPerimeter=0;exitX=0.5;exitY=1;exitDx=0;exitDy=0;exitPerimeter=0;" edge="1" parent="1" source="Ap1lxfuNoZFb6KsWal0I-27" target="Ap1lxfuNoZFb6KsWal0I-29">
          <mxGeometry width="50" height="50" relative="1" as="geometry">
            <mxPoint x="-516" y="380" as="sourcePoint" />
            <mxPoint x="-466" y="330" as="targetPoint" />
          </mxGeometry>
        </mxCell>
        <mxCell id="Ap1lxfuNoZFb6KsWal0I-32" value="Helm&lt;br&gt;Releases" style="endArrow=classic;html=1;rounded=0;exitX=0.25;exitY=1;exitDx=0;exitDy=0;dashed=1;entryX=0.5;entryY=0;entryDx=0;entryDy=0;labelBackgroundColor=none;strokeWidth=2;strokeColor=#4C0099;fontColor=#4C0099;fontStyle=1" edge="1" parent="1" source="Ap1lxfuNoZFb6KsWal0I-5" target="Ap1lxfuNoZFb6KsWal0I-3">
          <mxGeometry x="-0.4091" y="23" width="50" height="50" relative="1" as="geometry">
            <mxPoint x="-480" y="430" as="sourcePoint" />
            <mxPoint x="-290" y="560" as="targetPoint" />
            <mxPoint as="offset" />
          </mxGeometry>
        </mxCell>
        <mxCell id="Ap1lxfuNoZFb6KsWal0I-33" value="" style="endArrow=classic;html=1;rounded=0;exitX=0.25;exitY=1;exitDx=0;exitDy=0;dashed=1;entryX=0;entryY=0.25;entryDx=0;entryDy=0;strokeWidth=2;strokeColor=#4C0099;" edge="1" parent="1" source="Ap1lxfuNoZFb6KsWal0I-5" target="Ap1lxfuNoZFb6KsWal0I-4">
          <mxGeometry width="50" height="50" relative="1" as="geometry">
            <mxPoint x="-325" y="260" as="sourcePoint" />
            <mxPoint x="-368" y="300" as="targetPoint" />
          </mxGeometry>
        </mxCell>
        <mxCell id="Ap1lxfuNoZFb6KsWal0I-38" value="" style="endArrow=classic;html=1;rounded=0;exitX=1;exitY=0.5;exitDx=0;exitDy=0;labelBackgroundColor=none;strokeColor=#4C0099;fontColor=#4C0099;dashed=1;strokeWidth=1;fontStyle=1;entryX=0;entryY=0.25;entryDx=0;entryDy=0;" edge="1" parent="1" source="Ap1lxfuNoZFb6KsWal0I-35" target="W4_b19S9Q3RcEzfWoKEn-1">
          <mxGeometry width="50" height="50" relative="1" as="geometry">
            <mxPoint x="-500" y="410" as="sourcePoint" />
            <mxPoint x="-450" y="360" as="targetPoint" />
          </mxGeometry>
        </mxCell>
        <mxCell id="Ap1lxfuNoZFb6KsWal0I-40" value="" style="endArrow=classic;html=1;rounded=0;exitX=1;exitY=0.5;exitDx=0;exitDy=0;labelBackgroundColor=none;strokeColor=#4C0099;fontColor=#4C0099;dashed=1;strokeWidth=1;fontStyle=1;entryX=0;entryY=0.75;entryDx=0;entryDy=0;" edge="1" parent="1" source="Ap1lxfuNoZFb6KsWal0I-34" target="W4_b19S9Q3RcEzfWoKEn-1">
          <mxGeometry width="50" height="50" relative="1" as="geometry">
            <mxPoint x="-685" y="246" as="sourcePoint" />
            <mxPoint x="-638" y="318" as="targetPoint" />
          </mxGeometry>
        </mxCell>
        <mxCell id="Ap1lxfuNoZFb6KsWal0I-41" value="" style="endArrow=classic;html=1;rounded=0;exitX=1;exitY=0.25;exitDx=0;exitDy=0;labelBackgroundColor=none;strokeColor=#000000;fontColor=#4C0099;strokeWidth=1;fontStyle=1;entryX=0;entryY=0.5;entryDx=0;entryDy=0;" edge="1" parent="1" source="W4_b19S9Q3RcEzfWoKEn-1" target="Ap1lxfuNoZFb6KsWal0I-22">
          <mxGeometry width="50" height="50" relative="1" as="geometry">
            <mxPoint x="-635" y="256" as="sourcePoint" />
            <mxPoint x="-588" y="328" as="targetPoint" />
          </mxGeometry>
        </mxCell>
        <mxCell id="Ap1lxfuNoZFb6KsWal0I-43" value="&lt;font style=&quot;font-size: 10px;&quot;&gt;manifests&lt;/font&gt;" style="shape=note;whiteSpace=wrap;html=1;backgroundOutline=1;darkOpacity=0.05;fillColor=#fff2cc;strokeColor=#d6b656;size=5;" vertex="1" parent="1">
          <mxGeometry x="-550" y="228" width="50" height="40" as="geometry" />
        </mxCell>
        <mxCell id="Ap1lxfuNoZFb6KsWal0I-51" value="&lt;font style=&quot;font-size: 10px;&quot;&gt;manifests&lt;/font&gt;" style="shape=note;whiteSpace=wrap;html=1;backgroundOutline=1;darkOpacity=0.05;fillColor=#fff2cc;strokeColor=#d6b656;size=5;" vertex="1" parent="1">
          <mxGeometry x="-540" y="238" width="50" height="40" as="geometry" />
        </mxCell>
        <mxCell id="Ap1lxfuNoZFb6KsWal0I-52" value="&lt;font style=&quot;font-size: 10px;&quot;&gt;manifests&lt;/font&gt;" style="shape=note;whiteSpace=wrap;html=1;backgroundOutline=1;darkOpacity=0.05;fillColor=#fff2cc;strokeColor=#d6b656;size=5;" vertex="1" parent="1">
          <mxGeometry x="-530" y="248" width="50" height="40" as="geometry" />
        </mxCell>
      </root>
    </mxGraphModel>
  </diagram>
  <diagram id="rYIXokB2H5WQOR2zynZl" name="web-sample">
    <mxGraphModel dx="2284" dy="858" grid="1" gridSize="10" guides="1" tooltips="1" connect="1" arrows="1" fold="1" page="1" pageScale="1" pageWidth="850" pageHeight="1100" math="0" shadow="0">
      <root>
        <mxCell id="0" />
        <mxCell id="1" parent="0" />
        <mxCell id="wO4EoCRvVU_X22HaP085-1" value="" style="rounded=0;whiteSpace=wrap;html=1;fillColor=none;strokeColor=none;" vertex="1" parent="1">
          <mxGeometry x="-630" y="297.5" width="1070" height="390" as="geometry" />
        </mxCell>
        <mxCell id="1mjt2lqVUCGU38yu88B_-5" value="" style="rounded=1;whiteSpace=wrap;html=1;fillColor=#ffe6cc;strokeColor=#d79b00;arcSize=4;" vertex="1" parent="1">
          <mxGeometry x="-120" y="335" width="450" height="315" as="geometry" />
        </mxCell>
        <mxCell id="1mjt2lqVUCGU38yu88B_-6" value="Kubernetes cluster" style="rounded=1;whiteSpace=wrap;html=1;fillColor=#ffcd28;gradientColor=#ffa500;strokeColor=#d79b00;" vertex="1" parent="1">
          <mxGeometry x="-120" y="335" width="450" height="20" as="geometry" />
        </mxCell>
        <mxCell id="ifi-VIDJYdXo-KdSWMTD-1" value="" style="rounded=0;whiteSpace=wrap;html=1;fillColor=#f5f5f5;strokeColor=#4C0099;verticalAlign=top;align=left;fontColor=#333333;dashed=1;strokeWidth=2;dashPattern=1 1;" vertex="1" parent="1">
          <mxGeometry x="-20" y="441" width="330" height="219" as="geometry" />
        </mxCell>
        <mxCell id="1mjt2lqVUCGU38yu88B_-1" value="External&lt;br&gt;Load Balancer" style="sketch=0;points=[[0.015,0.015,0],[0.985,0.015,0],[0.985,0.985,0],[0.015,0.985,0],[0.25,0,0],[0.5,0,0],[0.75,0,0],[1,0.25,0],[1,0.5,0],[1,0.75,0],[0.75,1,0],[0.5,1,0],[0.25,1,0],[0,0.75,0],[0,0.5,0],[0,0.25,0]];verticalLabelPosition=bottom;html=1;verticalAlign=top;aspect=fixed;align=center;pointerEvents=1;shape=mxgraph.cisco19.rect;prIcon=load_balancer;fillColor=#fff2cc;strokeColor=#d6b656;gradientColor=#ffd966;" vertex="1" parent="1">
          <mxGeometry x="-250" y="370" width="64" height="50" as="geometry" />
        </mxCell>
        <mxCell id="1mjt2lqVUCGU38yu88B_-2" value="web&lt;br&gt;client" style="rounded=1;whiteSpace=wrap;html=1;fillColor=#d5e8d4;gradientColor=#97d077;strokeColor=#82b366;" vertex="1" parent="1">
          <mxGeometry x="-490" y="370" width="70" height="38" as="geometry" />
        </mxCell>
        <mxCell id="1mjt2lqVUCGU38yu88B_-3" value="web&lt;br&gt;client" style="rounded=1;whiteSpace=wrap;html=1;fillColor=#d5e8d4;gradientColor=#97d077;strokeColor=#82b366;" vertex="1" parent="1">
          <mxGeometry x="-480" y="380" width="70" height="38" as="geometry" />
        </mxCell>
        <mxCell id="1mjt2lqVUCGU38yu88B_-4" value="" style="ellipse;shape=cloud;whiteSpace=wrap;html=1;fillColor=#f5f5f5;strokeColor=#666666;gradientColor=#b3b3b3;" vertex="1" parent="1">
          <mxGeometry x="-390" y="355" width="120" height="80" as="geometry" />
        </mxCell>
        <mxCell id="1mjt2lqVUCGU38yu88B_-7" value="" style="aspect=fixed;sketch=0;html=1;dashed=0;whitespace=wrap;fillColor=#ffcd28;strokeColor=#d79b00;points=[[0.005,0.63,0],[0.1,0.2,0],[0.9,0.2,0],[0.5,0,0],[0.995,0.63,0],[0.72,0.99,0],[0.5,1,0],[0.28,0.99,0]];shape=mxgraph.kubernetes.icon2;prIcon=pod;gradientColor=#ffa500;verticalAlign=bottom;spacingBottom=-15;" vertex="1" parent="1">
          <mxGeometry x="-34" y="360" width="50" height="48" as="geometry" />
        </mxCell>
        <mxCell id="1mjt2lqVUCGU38yu88B_-8" value="Ingress&lt;br&gt;Controller" style="aspect=fixed;sketch=0;html=1;dashed=0;whitespace=wrap;fillColor=#ffcd28;strokeColor=#d79b00;points=[[0.005,0.63,0],[0.1,0.2,0],[0.9,0.2,0],[0.5,0,0],[0.995,0.63,0],[0.72,0.99,0],[0.5,1,0],[0.28,0.99,0]];shape=mxgraph.kubernetes.icon2;prIcon=pod;gradientColor=#ffa500;verticalAlign=bottom;spacingBottom=-15;" vertex="1" parent="1">
          <mxGeometry x="-24" y="366" width="50" height="48" as="geometry" />
        </mxCell>
        <mxCell id="1mjt2lqVUCGU38yu88B_-9" value="" style="aspect=fixed;sketch=0;html=1;dashed=0;whitespace=wrap;fillColor=#dae8fc;strokeColor=#6c8ebf;points=[[0.005,0.63,0],[0.1,0.2,0],[0.9,0.2,0],[0.5,0,0],[0.995,0.63,0],[0.72,0.99,0],[0.5,1,0],[0.28,0.99,0]];shape=mxgraph.kubernetes.icon2;prIcon=pod;gradientColor=#7ea6e0;verticalAlign=bottom;spacingBottom=-15;" vertex="1" parent="1">
          <mxGeometry x="86" y="556" width="50" height="48" as="geometry" />
        </mxCell>
        <mxCell id="1mjt2lqVUCGU38yu88B_-10" value="" style="aspect=fixed;sketch=0;html=1;dashed=0;whitespace=wrap;fillColor=#dae8fc;strokeColor=#6c8ebf;points=[[0.005,0.63,0],[0.1,0.2,0],[0.9,0.2,0],[0.5,0,0],[0.995,0.63,0],[0.72,0.99,0],[0.5,1,0],[0.28,0.99,0]];shape=mxgraph.kubernetes.icon2;kubernetesLabel=1;prIcon=ing;verticalAlign=bottom;gradientColor=#7ea6e0;spacingBottom=-15;" vertex="1" parent="1">
          <mxGeometry x="46" y="445" width="50" height="48" as="geometry" />
        </mxCell>
        <mxCell id="1mjt2lqVUCGU38yu88B_-11" value="" style="aspect=fixed;sketch=0;html=1;dashed=0;whitespace=wrap;fillColor=#dae8fc;strokeColor=#6c8ebf;points=[[0.005,0.63,0],[0.1,0.2,0],[0.9,0.2,0],[0.5,0,0],[0.995,0.63,0],[0.72,0.99,0],[0.5,1,0],[0.28,0.99,0]];shape=mxgraph.kubernetes.icon2;kubernetesLabel=1;prIcon=svc;verticalAlign=bottom;gradientColor=#7ea6e0;spacingBottom=-15;" vertex="1" parent="1">
          <mxGeometry x="86" y="493" width="50" height="48" as="geometry" />
        </mxCell>
        <mxCell id="1mjt2lqVUCGU38yu88B_-14" value="nginx" style="aspect=fixed;sketch=0;html=1;dashed=0;whitespace=wrap;fillColor=#dae8fc;strokeColor=#6c8ebf;points=[[0.005,0.63,0],[0.1,0.2,0],[0.9,0.2,0],[0.5,0,0],[0.995,0.63,0],[0.72,0.99,0],[0.5,1,0],[0.28,0.99,0]];shape=mxgraph.kubernetes.icon2;prIcon=pod;gradientColor=#7ea6e0;verticalAlign=bottom;spacingBottom=-15;" vertex="1" parent="1">
          <mxGeometry x="96" y="566" width="50" height="48" as="geometry" />
        </mxCell>
        <mxCell id="1mjt2lqVUCGU38yu88B_-17" value="" style="endArrow=classic;html=1;rounded=0;exitX=1;exitY=0.5;exitDx=0;exitDy=0;entryX=0.194;entryY=0.548;entryDx=0;entryDy=0;entryPerimeter=0;" edge="1" parent="1" source="1mjt2lqVUCGU38yu88B_-3" target="1mjt2lqVUCGU38yu88B_-4">
          <mxGeometry width="50" height="50" relative="1" as="geometry">
            <mxPoint x="-190" y="485" as="sourcePoint" />
            <mxPoint x="-140" y="435" as="targetPoint" />
          </mxGeometry>
        </mxCell>
        <mxCell id="1mjt2lqVUCGU38yu88B_-18" value="" style="endArrow=classic;html=1;rounded=0;exitX=0.875;exitY=0.5;exitDx=0;exitDy=0;exitPerimeter=0;entryX=0;entryY=0.5;entryDx=0;entryDy=0;entryPerimeter=0;" edge="1" parent="1" source="1mjt2lqVUCGU38yu88B_-4" target="1mjt2lqVUCGU38yu88B_-1">
          <mxGeometry width="50" height="50" relative="1" as="geometry">
            <mxPoint x="-190" y="485" as="sourcePoint" />
            <mxPoint x="-140" y="435" as="targetPoint" />
          </mxGeometry>
        </mxCell>
        <mxCell id="1mjt2lqVUCGU38yu88B_-19" value="" style="endArrow=classic;html=1;rounded=0;exitX=1;exitY=0.5;exitDx=0;exitDy=0;exitPerimeter=0;entryX=0.005;entryY=0.63;entryDx=0;entryDy=0;entryPerimeter=0;" edge="1" parent="1" source="1mjt2lqVUCGU38yu88B_-1" target="1mjt2lqVUCGU38yu88B_-29">
          <mxGeometry width="50" height="50" relative="1" as="geometry">
            <mxPoint x="-80" y="395" as="sourcePoint" />
            <mxPoint x="-34" y="435" as="targetPoint" />
          </mxGeometry>
        </mxCell>
        <mxCell id="1mjt2lqVUCGU38yu88B_-20" value="" style="endArrow=classic;html=1;rounded=0;entryX=0.5;entryY=0;entryDx=0;entryDy=0;entryPerimeter=0;exitX=0.995;exitY=0.63;exitDx=0;exitDy=0;exitPerimeter=0;edgeStyle=orthogonalEdgeStyle;" edge="1" parent="1" source="1mjt2lqVUCGU38yu88B_-8" target="1mjt2lqVUCGU38yu88B_-10">
          <mxGeometry width="50" height="50" relative="1" as="geometry">
            <mxPoint x="-124" y="485" as="sourcePoint" />
            <mxPoint x="-74" y="435" as="targetPoint" />
          </mxGeometry>
        </mxCell>
        <mxCell id="1mjt2lqVUCGU38yu88B_-22" value="" style="endArrow=classic;html=1;rounded=0;entryX=0.5;entryY=0;entryDx=0;entryDy=0;entryPerimeter=0;exitX=0.995;exitY=0.63;exitDx=0;exitDy=0;exitPerimeter=0;edgeStyle=orthogonalEdgeStyle;" edge="1" parent="1" source="1mjt2lqVUCGU38yu88B_-10" target="1mjt2lqVUCGU38yu88B_-11">
          <mxGeometry width="50" height="50" relative="1" as="geometry">
            <mxPoint x="-224" y="606" as="sourcePoint" />
            <mxPoint x="-174" y="556" as="targetPoint" />
          </mxGeometry>
        </mxCell>
        <mxCell id="1mjt2lqVUCGU38yu88B_-25" value="" style="endArrow=classic;html=1;rounded=0;exitX=0.5;exitY=1;exitDx=0;exitDy=0;exitPerimeter=0;" edge="1" parent="1" source="1mjt2lqVUCGU38yu88B_-11" target="1mjt2lqVUCGU38yu88B_-9">
          <mxGeometry width="50" height="50" relative="1" as="geometry">
            <mxPoint x="36" y="536" as="sourcePoint" />
            <mxPoint x="86" y="486" as="targetPoint" />
          </mxGeometry>
        </mxCell>
        <mxCell id="1mjt2lqVUCGU38yu88B_-26" value="" style="endArrow=classic;html=1;rounded=0;exitX=0.5;exitY=1;exitDx=0;exitDy=0;exitPerimeter=0;entryX=0.5;entryY=0;entryDx=0;entryDy=0;entryPerimeter=0;" edge="1" parent="1" source="1mjt2lqVUCGU38yu88B_-11" target="1mjt2lqVUCGU38yu88B_-14">
          <mxGeometry width="50" height="50" relative="1" as="geometry">
            <mxPoint x="46" y="546" as="sourcePoint" />
            <mxPoint x="96" y="496" as="targetPoint" />
          </mxGeometry>
        </mxCell>
        <mxCell id="1mjt2lqVUCGU38yu88B_-29" value="" style="aspect=fixed;sketch=0;html=1;dashed=0;whitespace=wrap;fillColor=#ffcd28;strokeColor=#d79b00;points=[[0.005,0.63,0],[0.1,0.2,0],[0.9,0.2,0],[0.5,0,0],[0.995,0.63,0],[0.72,0.99,0],[0.5,1,0],[0.28,0.99,0]];shape=mxgraph.kubernetes.icon2;kubernetesLabel=1;prIcon=svc;verticalAlign=bottom;gradientColor=#ffa500;spacingBottom=-15;" vertex="1" parent="1">
          <mxGeometry x="-110" y="366" width="50" height="48" as="geometry" />
        </mxCell>
        <mxCell id="1mjt2lqVUCGU38yu88B_-30" value="" style="endArrow=classic;html=1;rounded=0;entryX=0.005;entryY=0.63;entryDx=0;entryDy=0;entryPerimeter=0;exitX=0.995;exitY=0.63;exitDx=0;exitDy=0;exitPerimeter=0;" edge="1" parent="1" source="1mjt2lqVUCGU38yu88B_-29" target="1mjt2lqVUCGU38yu88B_-8">
          <mxGeometry width="50" height="50" relative="1" as="geometry">
            <mxPoint x="-100" y="600" as="sourcePoint" />
            <mxPoint x="-50" y="550" as="targetPoint" />
          </mxGeometry>
        </mxCell>
        <mxCell id="1mjt2lqVUCGU38yu88B_-31" value="&lt;pre style=&quot;&quot;&gt;web-sample-otvl.example.com&lt;br&gt;&lt;/pre&gt;" style="text;html=1;strokeColor=none;fillColor=none;align=left;verticalAlign=middle;whiteSpace=wrap;rounded=0;" vertex="1" parent="1">
          <mxGeometry x="-532.5" y="435" width="212.5" height="30" as="geometry" />
        </mxCell>
        <mxCell id="1mjt2lqVUCGU38yu88B_-34" value="" style="endArrow=open;html=1;rounded=0;entryX=0.995;entryY=0.63;entryDx=0;entryDy=0;entryPerimeter=0;exitX=0.5;exitY=0;exitDx=0;exitDy=0;exitPerimeter=0;edgeStyle=orthogonalEdgeStyle;dashed=1;strokeColor=#4D4D4D;endFill=0;" edge="1" parent="1">
          <mxGeometry width="50" height="50" relative="1" as="geometry">
            <mxPoint x="71" y="445" as="sourcePoint" />
            <mxPoint x="96" y="475" as="targetPoint" />
            <Array as="points">
              <mxPoint x="70" y="475" />
            </Array>
          </mxGeometry>
        </mxCell>
        <mxCell id="1mjt2lqVUCGU38yu88B_-35" value="&lt;pre style=&quot;&quot;&gt;web-sample-otvl.example.com&lt;br&gt;&lt;/pre&gt;" style="text;html=1;strokeColor=none;fillColor=none;align=left;verticalAlign=middle;whiteSpace=wrap;rounded=0;" vertex="1" parent="1">
          <mxGeometry x="96" y="435" width="212.5" height="30" as="geometry" />
        </mxCell>
        <mxCell id="1mjt2lqVUCGU38yu88B_-37" value="" style="aspect=fixed;sketch=0;html=1;dashed=0;whitespace=wrap;fillColor=#dae8fc;strokeColor=#6c8ebf;points=[[0.005,0.63,0],[0.1,0.2,0],[0.9,0.2,0],[0.5,0,0],[0.995,0.63,0],[0.72,0.99,0],[0.5,1,0],[0.28,0.99,0]];shape=mxgraph.kubernetes.icon2;kubernetesLabel=1;prIcon=deploy" vertex="1" parent="1">
          <mxGeometry x="10" y="518" width="50" height="48" as="geometry" />
        </mxCell>
        <mxCell id="ifi-VIDJYdXo-KdSWMTD-2" value="" style="endArrow=classic;html=1;rounded=0;exitX=0.995;exitY=0.63;exitDx=0;exitDy=0;exitPerimeter=0;dashed=1;strokeColor=#000000;endFill=1;entryX=0.1;entryY=0.2;entryDx=0;entryDy=0;entryPerimeter=0;" edge="1" parent="1" source="1mjt2lqVUCGU38yu88B_-37" target="1mjt2lqVUCGU38yu88B_-9">
          <mxGeometry width="50" height="50" relative="1" as="geometry">
            <mxPoint x="81" y="455" as="sourcePoint" />
            <mxPoint x="90" y="570" as="targetPoint" />
          </mxGeometry>
        </mxCell>
        <mxCell id="wO4EoCRvVU_X22HaP085-5" value="&lt;font style=&quot;font-size: 10px;&quot;&gt;git repository&lt;/font&gt;" style="shape=cylinder3;whiteSpace=wrap;html=1;boundedLbl=1;backgroundOutline=1;size=3.5344827586206975;verticalAlign=middle;fillColor=#ffcccc;strokeColor=#36393d;" vertex="1" parent="1">
          <mxGeometry x="-300" y="575.5" width="50" height="44.5" as="geometry" />
        </mxCell>
        <mxCell id="wO4EoCRvVU_X22HaP085-6" value="" style="endArrow=classic;html=1;rounded=0;exitX=0.005;exitY=0.63;exitDx=0;exitDy=0;exitPerimeter=0;entryX=1;entryY=0.5;entryDx=0;entryDy=0;entryPerimeter=0;" edge="1" parent="1" source="1mjt2lqVUCGU38yu88B_-14" target="wO4EoCRvVU_X22HaP085-5">
          <mxGeometry width="50" height="50" relative="1" as="geometry">
            <mxPoint x="-50" y="430" as="sourcePoint" />
            <mxPoint y="380" as="targetPoint" />
          </mxGeometry>
        </mxCell>
        <mxCell id="wO4EoCRvVU_X22HaP085-2" value="" style="ellipse;shape=cloud;whiteSpace=wrap;html=1;fillColor=#f5f5f5;strokeColor=#666666;gradientColor=#b3b3b3;" vertex="1" parent="1">
          <mxGeometry x="-230" y="570" width="70" height="51" as="geometry" />
        </mxCell>
        <mxCell id="wO4EoCRvVU_X22HaP085-7" value="&lt;font style=&quot;font-size: 10px;&quot;&gt;web content&lt;/font&gt;" style="shape=cylinder3;whiteSpace=wrap;html=1;boundedLbl=1;backgroundOutline=1;size=4.55172413793116;fillColor=#ffcccc;strokeColor=#36393d;" vertex="1" parent="1">
          <mxGeometry x="53" y="610" width="36" height="40" as="geometry" />
        </mxCell>
        <mxCell id="wO4EoCRvVU_X22HaP085-8" value="" style="endArrow=classic;html=1;rounded=0;exitX=0.28;exitY=0.99;exitDx=0;exitDy=0;exitPerimeter=0;entryX=1;entryY=0.5;entryDx=0;entryDy=0;entryPerimeter=0;" edge="1" parent="1" source="1mjt2lqVUCGU38yu88B_-14" target="wO4EoCRvVU_X22HaP085-7">
          <mxGeometry width="50" height="50" relative="1" as="geometry">
            <mxPoint x="106" y="606" as="sourcePoint" />
            <mxPoint x="-240" y="608" as="targetPoint" />
          </mxGeometry>
        </mxCell>
      </root>
    </mxGraphModel>
  </diagram>
</mxfile>
